<svg width="232" height="131" viewBox="0 0 232 131" fill="none" xmlns="http://www.w3.org/2000/svg">
<path fill-rule="evenodd" clip-rule="evenodd" d="M102.622 0.354934C101.487 0.961029 100.473 2.5466 100.045 4.38564C99.9106 4.96272 99.8183 5.44294 99.8402 5.45293C99.8619 5.46293 100.073 5.55305 100.31 5.65298L100.74 5.83496L100.286 6.69972C100.036 7.17533 99.5118 7.78719 99.1211 8.0593C98.7302 8.33141 98.3282 8.7021 98.2279 8.88331C98.1275 9.06452 97.5903 9.85356 97.034 10.6368C95.8129 12.356 95.5071 13.4446 95.651 15.5632C95.7316 16.751 95.8882 17.3463 96.3897 18.3708C96.9849 19.5868 97.1063 19.711 98.2627 20.2896C98.9428 20.6297 99.6364 20.8657 99.804 20.814C99.9718 20.7623 102.02 20.8515 104.355 21.0121C106.69 21.173 108.665 21.3044 108.743 21.3044C108.821 21.3044 109.068 21.0058 109.291 20.6407L109.697 19.9771L112.208 20.0793C114.508 20.1731 114.77 20.1489 115.329 19.7898C116.357 19.13 116.806 18.0143 116.809 16.1159C116.811 14.8113 116.732 14.3472 116.42 13.8103C115.833 12.8012 115.393 12.6629 112.754 12.6598C110.417 12.6569 110.407 12.655 109.853 12.0952C109.37 11.6077 109.297 11.3909 109.297 10.4541C109.297 9.39025 109.279 9.35585 108.06 8.04488C107.38 7.3135 106.823 6.59229 106.823 6.4426C106.823 6.29271 106.957 5.8463 107.121 5.45063C107.907 3.54971 107.11 1.19605 105.396 0.357624C104.422 -0.118374 103.51 -0.119142 102.622 0.354934ZM103.681 1.50774C104.097 1.94627 104.284 2.03102 104.478 1.86844C104.617 1.7518 104.731 1.49391 104.731 1.29559C104.731 0.888966 104.933 0.831124 105.246 1.14782C105.4 1.30366 105.362 1.63842 105.104 2.3969C104.742 3.45901 104.819 3.60429 105.537 3.2163C105.864 3.03951 105.984 3.06391 106.19 3.34928C106.853 4.26438 106.18 5.5886 104.872 5.94431C103.913 6.20527 101.813 5.75906 101.23 5.17045C100.879 4.81552 100.877 4.77036 101.192 3.9377C101.372 3.46228 101.767 2.75741 102.071 2.37154C102.375 1.98547 102.675 1.50428 102.739 1.30212C102.895 0.804412 103.045 0.83708 103.681 1.50774ZM137.69 5.39682C137.454 5.51155 137.045 6.06787 136.78 6.63303C136.516 7.1982 136.256 7.66055 136.204 7.66055C136.151 7.66055 135.6 7.44436 134.979 7.18013C133.215 6.4303 132.154 6.51216 130.085 7.55851C126.623 9.30915 124.85 12.2753 124.869 16.284C124.902 23.2876 131.644 29.5803 141.396 31.7103C144.047 32.2893 148.351 32.2916 150.448 31.7153C154.945 30.4789 157.557 27.4953 158.183 22.88C158.693 19.1152 157.403 16.0648 154.831 14.9508C154.375 14.7536 154.003 14.5676 154.005 14.5374C154.006 14.5071 154.134 14.058 154.29 13.5391C154.446 13.0203 154.573 12.3143 154.573 11.9703C154.573 11.4303 154.449 11.2673 153.663 10.7792C153.163 10.4681 152.351 10.0338 151.86 9.81417L150.966 9.41484L149.012 11.5168C146.672 14.0353 145.965 15.2636 145.855 17.0037C145.779 18.2107 145.792 18.2518 146.457 18.885C147.229 19.621 148.024 19.8507 150.834 20.1499C153.125 20.3939 153.432 20.5382 153.432 21.3744C153.432 22.2383 152.233 23.9331 151.146 24.606C148.807 26.0546 144.775 26.1122 140.686 24.7559C138.946 24.1787 136.05 22.6081 134.643 21.4787C131.64 19.0678 130.087 15.4666 131.455 14.0847C132.007 13.5274 132.144 13.5455 134.693 14.5092C137.766 15.671 139.182 15.5796 140.401 14.141C141.344 13.0285 141.946 10.9854 142.116 8.31795L142.252 6.18913L140.715 5.67566C139.074 5.12779 138.374 5.06341 137.69 5.39682ZM105.696 7.11845C105.819 7.41746 106.211 7.92132 106.568 8.23801C107.116 8.72343 107.185 8.87351 107.015 9.19597C106.698 9.7938 105.723 10.2158 104.951 10.0892L104.279 9.97886L104.98 10.5632C105.776 11.2254 105.848 11.5562 105.302 12.0289C105.092 12.2099 104.921 12.4184 104.921 12.4922C104.921 12.566 105.499 12.6801 106.205 12.7459C109.387 13.042 109.225 12.9874 109.551 13.8731C109.714 14.314 109.904 14.999 109.973 15.3953L110.1 16.1159L109.175 16.1186C108.666 16.1199 108.041 16.1778 107.785 16.247C107.354 16.3634 107.347 16.3834 107.69 16.5191C107.893 16.5996 108.462 16.6715 108.952 16.679C109.443 16.6863 109.899 16.7816 109.966 16.8907C110.164 17.2149 109.024 19.0589 108.326 19.542C107.693 19.9804 107.617 19.9869 104.636 19.8559C102.962 19.7823 101.249 19.6652 100.831 19.5959C99.7017 19.4085 99.727 18.901 100.921 17.7724C102.074 16.6836 102.888 16.3081 104.097 16.3081C105.103 16.3081 105.032 16.0982 103.904 15.7337C102.714 15.3493 102.323 13.7845 103.17 12.7999C103.519 12.3936 103.489 12.3548 102.638 12.1346C102.078 11.9895 101.963 11.8679 101.914 11.3651C101.869 10.9095 101.944 10.7396 102.23 10.648C102.721 10.4906 103.338 9.58222 102.954 9.58222C102.808 9.58222 102.471 9.75594 102.204 9.96829L101.718 10.3543L100.758 9.75133L99.7972 9.14831L100.837 7.98743C101.409 7.34886 101.877 6.76313 101.877 6.68569C101.877 6.60844 102.686 6.55175 103.675 6.55982C105.464 6.57442 105.474 6.57711 105.696 7.11845ZM139.241 8.50512C139.144 8.8295 139.257 8.77839 139.808 8.24743C140.597 7.48798 140.598 7.49394 140.191 9.51362C139.992 10.5023 139.737 11.1893 139.451 11.5039C139.212 11.7681 138.833 12.3517 138.61 12.801C138.183 13.6612 138.07 13.7052 136.501 13.621C135.226 13.5528 131.859 11.9428 131.873 11.4078C131.876 11.3021 132.094 11.0915 132.358 10.9399C132.804 10.6837 132.956 10.7214 134.506 11.4728C135.424 11.9174 136.201 12.2549 136.233 12.2224C136.265 12.1899 135.419 11.6336 134.351 10.9862C132.423 9.81667 132.408 9.81109 131.87 10.128C130.402 10.9925 129.63 12.3567 129.504 14.3084C129.425 15.5233 129.494 15.8974 130.14 17.748C131.184 20.7385 132.431 22.1778 135.634 24.0905C139.024 26.1151 143.476 27.4578 146.773 27.4497C151.314 27.4386 154.839 24.755 155.099 21.1117C155.253 18.9513 154.725 18.2236 152.509 17.5441C151.403 17.2053 151.149 17.2018 151.149 17.5256C151.149 17.6761 151.628 17.9169 152.305 18.1069C153.489 18.4396 153.799 18.9398 152.773 18.8635C148.965 18.5797 148.001 18.4185 147.668 18.0088C147.48 17.7774 147.352 17.4082 147.383 17.1884C147.43 16.8556 147.595 16.7785 148.369 16.7289L149.299 16.6692L148.669 16.0131C147.896 15.2073 147.93 15.1059 149.717 12.8971C151.01 11.2992 151.526 11.001 152.062 11.5423C152.434 11.9178 152.329 12.3675 151.624 13.4256C150.933 14.464 150.789 15.1593 151.196 15.4977C151.327 15.6063 152.318 16.0054 153.399 16.3846C154.479 16.7637 155.502 17.1528 155.673 17.2491C156.057 17.4663 156.637 20.6074 156.652 22.5535C156.669 24.7663 155.658 26.4047 153.631 27.4493C152.481 28.042 149.685 28.7995 148.206 28.9194C147.298 28.9932 146.41 28.9254 145.442 28.709C143.204 28.2084 142.677 28.1609 142.205 28.4161C141.547 28.7716 141.989 28.9313 144.571 29.2734C146.927 29.5853 148.321 29.5115 151.337 28.9156C152.12 28.7607 152.783 28.6563 152.81 28.6836C152.837 28.7109 152.659 28.9238 152.414 29.1566C152.029 29.5217 151.428 29.6483 148.019 30.0813L144.071 30.5832L142.141 30.1547C139.395 29.5453 137.109 28.7419 135 27.6459C132.599 26.3982 129.628 24.0489 128.473 22.4849C127.525 21.2008 126.741 19.4016 126.837 18.7265C126.881 18.4117 127.133 18.6514 128.01 19.8443C130.099 22.6846 131.774 24.1771 134.884 25.9679C136.736 27.0352 137.178 27.183 137.328 26.7868C137.41 26.5723 137.12 26.3294 136.26 25.8905C133.267 24.3647 130.032 21.8121 128.858 20.0519C127.514 18.0355 126.774 15.2571 127.165 13.6913C127.689 11.5859 128.983 9.78534 130.676 8.80433C131.943 8.07064 132.556 8.08639 135.205 8.91963C138.048 9.81398 138.455 9.68542 138.886 7.75663C139.014 7.18148 139.015 7.18109 139.188 7.64037C139.284 7.89346 139.308 8.28259 139.241 8.50512ZM107.62 10.1355C108.02 10.289 108.054 10.4026 107.995 11.3838C107.931 12.4411 107.919 12.4609 107.424 12.35C106.419 12.125 106.253 12.0508 106.253 11.826C106.253 11.3388 106.638 10.2744 106.868 10.1272C107.166 9.936 107.097 9.93523 107.62 10.1355ZM100.688 10.7812L101.323 11.4038L100.699 11.919L100.074 12.4342L100.642 12.557C101.623 12.7687 101.774 12.9509 102.08 14.2947L102.377 15.6034L100.721 17.253C99.81 18.16 99.0189 19.032 98.963 19.1906C98.8219 19.5914 98.1965 18.8326 97.5378 17.4611C96.847 16.0229 96.8181 13.8011 97.4712 12.3688C97.8672 11.5006 97.9285 11.4453 98.1096 11.7923C98.3345 12.2234 98.819 12.6569 99.0758 12.6569C99.169 12.6569 99.2238 12.2895 99.1974 11.8402C99.1129 10.4035 99.1765 10.1587 99.6328 10.1587C99.8634 10.1587 100.338 10.4389 100.688 10.7812ZM112.522 14.7296C112.809 15.7715 112.769 16.3442 112.311 17.7539C112.028 18.6243 111.84 18.9538 111.704 18.8164C111.568 18.6792 111.589 18.3039 111.773 17.6069C111.922 17.0418 112.015 15.9731 111.985 15.1824C111.925 13.6571 112.171 13.4507 112.522 14.7296ZM113.772 14.2699C114.287 15.0646 114.318 15.9879 113.879 17.4472C113.655 18.1948 113.426 18.8062 113.371 18.8062C113.316 18.8062 113.297 18.0497 113.329 17.1248C113.361 16.2001 113.315 15.0759 113.227 14.6266C113.045 13.6938 113.292 13.5316 113.772 14.2699ZM115.52 15.5402C115.582 17.2887 115.229 18.4567 114.601 18.5747C114.323 18.6268 114.319 18.5351 114.554 17.6206C114.696 17.0641 114.813 15.9725 114.813 15.1952C114.813 13.9677 114.856 13.7899 115.137 13.8447C115.406 13.8969 115.471 14.1846 115.52 15.5402ZM126.798 17.9642C126.798 18.1227 126.713 18.199 126.608 18.1337C126.504 18.0683 126.418 17.8852 126.418 17.7266C126.418 17.5681 126.504 17.4918 126.608 17.5572C126.713 17.6225 126.798 17.8056 126.798 17.9642ZM29.2064 29.6956C24.2147 30.4898 21.3939 31.8555 17.2233 35.4973C8.27183 43.3139 2.75208 54.7129 0.562629 69.9041C-0.187099 75.1051 -0.187289 75.9654 0.560537 87.2035C1.21191 96.9954 1.27526 97.613 1.92873 100.559C3.23604 106.453 4.59586 110.193 7.15704 114.936C9.60578 119.472 11.9073 122.283 15.4955 125.121C20.0462 128.721 24.7675 130.374 31.8697 130.855C37.8144 131.258 40.4026 130.873 44.1399 129.03C45.291 128.463 46.6179 127.868 47.0887 127.708C47.8729 127.443 55.4518 125.904 65.7321 123.923C70.2768 123.047 71.2297 122.69 72.7948 121.271C75.9564 118.404 79.239 111.614 79.239 107.94C79.239 105.979 77.7831 102.407 76.1021 100.244C74.4623 98.133 70.5451 95.1106 68.4532 94.3418C65.3993 93.2195 65.6765 93.3996 65.8072 92.6224C65.9815 91.5874 66.6825 79.3251 66.6829 77.304L66.6832 75.5572L68.1576 75.1389C69.0606 74.8825 71.6958 74.4982 74.9586 74.1469C81.16 73.4791 84.5207 72.9595 85.9717 72.4445C87.2622 71.9862 88.2551 71.2948 90.0968 69.5714C90.8895 68.8296 92.4101 67.6909 93.4758 67.0404C96.3467 65.2886 96.9959 64.5605 98.5312 61.3713C100.332 57.6294 100.757 56.4283 100.874 54.7396C101.138 50.9358 98.5384 45.9775 94.5187 42.6188C91.2024 39.848 86.4254 37.0786 83.1388 36.0221C81.3498 35.4468 68.6539 33.5055 65.4467 33.3166C64.2958 33.2488 60.9571 32.9461 58.0274 32.644C55.0978 32.3419 51.7163 32.0004 50.513 31.8851C46.2386 31.4754 42.2036 30.9408 39.7646 30.4606C38.4044 30.1927 36.5661 29.8822 35.6794 29.7705C34.1505 29.578 30.2306 29.5326 29.2064 29.6956ZM34.2892 31.7702C35.0444 31.9401 36.521 32.3707 37.5708 32.727C38.6205 33.0835 39.4792 33.3412 39.4792 33.2997C39.4792 33.2582 38.9568 32.958 38.3186 32.6325C37.6801 32.3069 37.2009 31.9972 37.2536 31.9439C37.3796 31.8167 42.8128 32.6169 43.4286 32.8535C43.6909 32.9542 44.5841 33.5531 45.4137 34.1846C46.2431 34.8161 47.0381 35.3326 47.1801 35.3326C47.322 35.3326 47.5735 35.3851 47.739 35.4493C47.9045 35.5134 48.0399 35.4802 48.0399 35.3753C48.0399 35.2704 47.3912 34.764 46.5981 34.2498C45.2575 33.3804 45.1942 33.3101 45.6945 33.2459C46.7977 33.1046 62.9742 34.5824 65.6894 35.0726C66.209 35.1664 66.2744 35.2317 66.0827 35.465C65.9562 35.6191 65.5045 35.9233 65.079 36.1411C62.1638 37.6336 61.0878 39.9633 61.5099 43.8689C61.778 46.3471 62.4345 47.9714 64.5452 51.3786C66.4599 54.4696 67.565 55.8893 68.6237 56.6182C69.9903 57.5594 73.603 59.5388 75.0088 60.1166C76.5672 60.7573 82.8632 62.6745 82.9895 62.5471C83.1533 62.3815 82.3733 62.0829 79.4351 61.1862C73.2358 59.2941 68.1926 55.8559 65.3579 51.5886C64.0256 49.5831 62.5905 46.5173 62.2012 44.8449C61.3701 41.275 62.7059 37.9665 65.5835 36.4679C67.5924 35.4218 71.1443 35.2673 76.6707 35.9856C79.4891 36.3521 80.4317 36.5586 81.9974 37.1534C87.7352 39.3326 93.0457 42.9209 95.9725 46.5959C99.122 50.5507 100.227 53.9517 99.2765 56.7683C98.9558 57.7191 97.5792 59.3035 95.8954 60.66C95.4826 60.9925 95.2054 61.3257 95.2794 61.4005C95.4029 61.525 95.8718 61.3217 97.115 60.6043C97.7329 60.2477 97.785 60.3412 97.3983 61.1132C96.3708 63.1644 93.9841 65.4183 91.6274 66.5634C90.5393 67.0921 89.8396 67.6169 88.8226 68.6673C87.1989 70.3441 85.6197 71.2089 83.6863 71.4798C81.6839 71.7604 72.3554 72.9445 70.1197 73.202C68.2632 73.4157 66.2223 73.3675 65.5146 73.0933C65.2711 72.9989 65.2372 72.8367 65.3529 72.319C65.5125 71.6038 64.7422 67.1165 64.4004 66.7712C64.108 66.4758 64.1647 68.5629 64.4928 70.171C65.2137 73.7045 65.3799 80.9331 64.8805 87.0256C64.1293 96.1889 61.2067 107.133 58.0813 112.488C55.7539 116.475 53.8778 119.037 51.7161 121.178C48.2186 124.643 47.9362 124.843 43.5305 126.97L39.4967 128.918L37.8234 128.912L36.1501 128.905L36.6257 128.498C36.8872 128.274 37.8289 127.747 38.7183 127.327C40.5219 126.476 41.4621 125.833 41.7792 125.235C41.9388 124.933 41.9346 124.798 41.7623 124.691C41.6219 124.603 41.217 124.867 40.7167 125.372C39.7149 126.384 37.4081 127.517 34.8184 128.268C33.1021 128.766 32.6369 128.82 30.0624 128.82C26.9404 128.82 25.5882 128.557 22.6004 127.369C17.7383 125.434 12.7221 121.313 9.78536 116.841C8.31197 114.598 6.34472 110.36 5.0433 106.627L3.87087 103.264L2.46387 92.2141C1.52504 84.8424 1.05592 80.5063 1.05401 79.1873C1.04507 72.9053 3.11144 62.7574 5.934 55.2219C6.84048 52.8019 9.67446 47.2043 10.7499 45.7096C11.2443 45.0226 12.1038 43.7687 12.6601 42.9232C14.4475 40.206 20.5829 34.4287 23.0122 33.1752C23.437 32.9559 24.7263 32.439 25.8772 32.0266L27.9698 31.2763L30.4429 31.369C31.8031 31.4199 33.5339 31.6005 34.2892 31.7702ZM24.8688 36.2454C24.666 36.536 24.3138 37.163 24.0861 37.6386C23.7045 38.4355 23.7015 38.4692 24.0475 38.067C24.4107 37.6448 24.4677 37.6378 25.7878 37.8581L27.1526 38.0858L27.0228 39.5436C26.7561 42.536 26.2739 43.4728 25.0558 43.3646C24.4978 43.315 24.3793 43.2088 24.1603 42.5629C23.8329 41.5961 23.5795 41.343 23.4481 41.8513C23.3859 42.0911 23.5057 42.4514 23.7536 42.7697C23.9777 43.0575 24.1369 43.438 24.1072 43.615C24.0715 43.8281 24.2583 44.009 24.6608 44.1506C25.5738 44.4721 26.056 44.4121 26.5919 43.9104C27.2916 43.2555 27.6114 42.5325 27.9637 40.8098C28.4696 38.336 28.0022 36.8613 26.4759 36.1149C25.4277 35.6024 25.3107 35.6118 24.8688 36.2454ZM71.9148 38.5264C68.7026 39.013 67.1665 39.6696 65.8314 41.1264C64.1131 43.001 63.8103 44.8228 64.7592 47.5763C65.4908 49.6994 66.1917 50.7421 68.2048 52.7024C74.7982 59.1231 85.6243 61.7383 92.0393 58.4601C93.3666 57.7818 94.3748 56.7777 94.9699 55.5411C95.4284 54.5883 95.4914 54.2384 95.4771 52.7237C95.4581 50.6754 95.195 49.8579 93.9424 47.9549C92.287 45.4394 89.6634 42.9355 87.4715 41.779C86.3982 41.2127 84.785 40.8711 85.0233 41.2606C85.0979 41.3824 85.2423 41.482 85.3444 41.482C85.4464 41.482 86.2332 41.8807 87.0929 42.3682C91.2593 44.7311 93.6917 47.4924 94.5546 50.8392C95.1059 52.9768 94.825 52.9186 93.6584 50.6535C93.1406 49.6479 92.439 48.6665 91.7163 47.9365C90.6374 46.8467 90.5762 46.8131 90.3996 47.2124C90.2979 47.4428 90.1304 47.6313 90.0275 47.6313C89.9248 47.6313 89.1222 47.1123 88.244 46.4777C85.2683 44.3278 82.9798 43.1759 80.2442 42.4516C79.5871 42.2777 74.432 41.3007 74.1025 41.2877C74.0502 41.2856 74.1358 41.2001 74.2928 41.0976C74.4497 40.9952 75.1304 40.9101 75.8052 40.9083C76.77 40.906 76.9827 40.8555 76.8003 40.6712C76.6538 40.5232 75.6642 40.3995 74.1141 40.3349C72.7644 40.2788 71.6034 40.1754 71.5341 40.1053C71.4649 40.0349 71.4989 39.8068 71.6095 39.5981C71.9066 39.037 75.1899 38.8518 77.9073 39.2426C81.4799 39.7565 82.0202 39.7995 81.7769 39.5513C81.6555 39.4275 80.9707 39.1552 80.255 38.9461C79.2428 38.6506 78.2349 38.552 75.7196 38.503C73.9408 38.4682 72.2287 38.4788 71.9148 38.5264ZM120.675 39.0143C118.856 39.1967 117.421 39.6623 115.611 40.6566C114.032 41.5244 114.03 41.525 112.635 41.393C110.088 41.1518 104.432 42.429 101.818 43.8356C100.73 44.4212 99.0237 46.0926 99.0237 46.5728C99.0237 47.208 99.9327 46.9435 103.432 45.2901C106.009 44.0722 107.501 43.4832 108.493 43.2912C110.141 42.973 112.455 42.9324 112.63 43.219C112.698 43.3289 112.279 44.2584 111.701 45.2848C111.122 46.3111 110.125 48.5326 109.486 50.2215C107.973 54.2157 107.038 56.2108 106.258 57.1084C105.91 57.5083 104.745 58.4411 103.668 59.1813C101.378 60.7561 99.295 62.7856 98.1663 64.542C97.4841 65.6034 97.0941 66.476 95.8905 69.6344C95.7577 69.9828 95.7198 69.9617 95.4868 69.409C95.199 68.7261 95.1466 68.6821 94.4104 68.5043C93.9339 68.3894 93.8873 68.4263 93.8873 68.9194C93.8873 69.5758 96.7348 75.2788 97.6112 76.3772L98.2378 77.163L97.7835 78.427C97.5338 79.1223 97.1923 80.6712 97.0249 81.8691C96.645 84.5872 96.4593 85.1039 95.8623 85.1039C94.5373 85.1039 93.1902 87.3767 89.8828 95.1927C87.704 100.342 87.2289 101.804 87.2289 103.363C87.2289 106.289 89.0022 109.718 91.9284 112.45C94.8531 115.182 99.9178 117.706 104.35 118.642C107.797 119.371 111.463 119.186 114.326 118.139C116.068 117.503 116.361 117.28 117.485 115.743C117.91 115.162 118.341 114.739 118.442 114.803C118.544 114.866 119.152 115.706 119.793 116.669C122.577 120.851 124.435 122 128.418 122C132.746 122 137.655 120.348 142.017 117.425C143.983 116.107 147.573 112.529 148.458 111.004C149.67 108.915 150.06 107.665 150.156 105.556C150.259 103.295 150.05 102.385 148.797 99.6594C147.385 96.5863 143.502 89.6942 142.025 87.6403C140.674 85.7617 138.444 84.7551 134.049 84.0403C133.067 83.8804 132.013 83.6004 131.706 83.4178C130.45 82.6716 129.92 80.7442 130.491 79.0066C130.931 77.6691 131.904 76.6065 133.511 75.7104C135.064 74.8441 135.655 74.2791 136.447 72.9013C136.927 72.0665 140.832 63.7484 142.582 59.8339C143.255 58.3293 144.11 55.0249 144.11 53.9286C144.111 51.555 140.803 47.0317 136.892 44.0574C132.226 40.5092 125.775 38.5032 120.675 39.0143ZM52.2252 39.7192C52.2252 39.8218 52.7666 40.6712 53.4282 41.6067C54.0899 42.5421 55.2884 44.253 56.0916 45.4087C56.8947 46.5644 57.5518 47.4484 57.5518 47.373C57.5518 47.1332 56.4273 44.9754 55.7073 43.8331C54.2133 41.4635 52.2252 39.1145 52.2252 39.7192ZM127.369 41.4339C128.991 41.8526 130.785 42.4345 131.357 42.7272C133.306 43.7251 137.401 46.6416 138.668 47.9344C140.961 50.274 142.398 53.1319 142.398 55.3543C142.398 57.9714 140.882 59.5143 137.587 60.2505C136.833 60.4193 136.087 60.6297 135.93 60.7181C135.406 61.0138 137.493 60.8937 139.105 60.5353L140.663 60.189L140.414 60.7802C139.283 63.4595 136.161 70.431 135.693 71.3226C134.213 74.1398 131.315 75.2717 126.133 75.0561C122.179 74.8916 120.288 74.3545 116.141 72.2191C112.239 70.209 109.931 68.2209 108.319 65.4804C107.447 63.9976 107.014 62.7109 107.014 61.6038C107.014 60.5152 107.911 58.0114 110.197 52.7237C111.294 50.1871 112.286 47.8738 112.403 47.5833C112.519 47.2927 112.67 47.0548 112.739 47.0548C112.892 47.0548 113.206 47.8423 113.469 48.8877C114.072 51.2779 117.824 55.5048 120.972 57.3402C122.726 58.3625 121.492 56.9401 118.561 54.5601C116.663 53.0197 115.307 51.3684 114.461 49.5699C113.902 48.3819 113.78 47.8879 113.724 46.5913C113.663 45.1793 113.705 44.9498 114.188 44.0826C115.111 42.4226 117.166 41.2093 119.904 40.7079C121.699 40.3791 124.24 40.6262 127.369 41.4339ZM76.6934 42.3546C80.7057 43.0575 84.3879 44.4792 87.1338 46.3851C90.6956 48.8573 92.3891 51.0494 93.2125 54.2534C93.6805 56.0747 93.681 56.0734 91.9573 57.1759C90.6087 58.0385 90.3494 58.14 89.9571 57.9595C89.6459 57.8162 89.5398 57.6457 89.614 57.4092C89.6902 57.1668 89.2782 56.5667 88.2066 55.3593C85.9241 52.7879 83.7579 51.1072 81.0826 49.832C79.1414 48.9067 75.4663 47.8905 72.7817 47.5366C70.2238 47.1995 69.8579 47.1019 69.9789 46.7898C70.0248 46.6712 70.5114 45.5582 71.0601 44.3164L72.0579 42.0585H73.5309C74.3411 42.0585 75.7641 42.1916 76.6934 42.3546ZM175.659 44.1598C173.703 44.4715 172.772 44.7776 167.807 46.7408C164.014 48.2409 161.787 49.2319 160.989 49.7751C154.724 54.0428 151.466 57.8377 149.796 62.8125C148.996 65.1977 148.939 67.2393 149.616 69.2501C150.454 71.7396 152.774 76.9264 153.614 78.1859C156.381 82.3371 160.372 85.3439 165.226 86.9327C166.707 87.4174 167.109 87.4639 169.982 87.4841C171.709 87.4962 175.28 87.3938 177.918 87.2564C181.325 87.0792 182.928 87.065 183.453 87.2077C185.253 87.6974 186.869 89.5322 188.711 93.1795C189.38 94.5032 190.093 95.7373 190.295 95.9218C190.497 96.1064 191.023 96.3637 191.465 96.4936L192.268 96.73L191.731 97.4343C191.436 97.8217 189.91 99.003 188.34 100.059C183.749 103.15 181.998 104.864 179.966 108.26C178.203 111.208 177.404 114.364 177.969 116.156C178.364 117.408 180.641 121.327 182.186 123.414C183.966 125.816 186.722 128.51 188.093 129.184C190.735 130.485 195.347 130.984 199.184 130.385C202.507 129.865 207.206 128.221 210.045 126.585C214.563 123.982 218.251 120.668 220.728 116.988C221.593 115.702 223.292 112.19 224.076 110.064C225.178 107.077 227.617 101.566 228.022 101.15C228.332 100.831 228.701 100.754 230.198 100.699L232 100.632V99.786C232 99.1094 231.933 98.9393 231.667 98.937C231.484 98.9353 231.207 98.8527 231.051 98.7531C230.815 98.6027 230.871 98.4645 231.384 97.9303C231.771 97.5271 232 97.0943 232 96.7673C232 96.2751 231.934 96.314 230.811 97.465C230.157 98.1351 229.339 98.7818 228.993 98.9017C228.391 99.1104 228.369 99.1013 228.494 98.6936C228.79 97.7218 229.919 94.6867 230.619 92.9827C231.875 89.9238 232.072 88.9228 231.908 86.4133C231.704 83.2956 231.691 81.4212 231.87 80.9243C232.07 80.3697 231.631 80.3326 231.155 80.8637C230.739 81.3282 230.71 82.1806 231.026 84.6208C231.179 85.7984 231.224 87.0928 231.143 87.971C230.756 92.1347 229.364 94.3247 226.514 95.2521C224.096 96.0386 224.725 96.2571 227.948 95.7507L228.746 95.6252L227.925 97.6188C227.473 98.7153 226.61 100.89 226.006 102.452C225.403 104.014 224.845 105.331 224.768 105.379C224.691 105.428 223.996 104.671 223.225 103.698C222.453 102.725 221.394 101.601 220.871 101.199C219.822 100.394 218.268 99.8429 217.309 99.9363C216.745 99.9913 216.873 100.087 218.713 100.988C219.826 101.534 221.078 102.291 221.494 102.671C224.159 105.103 223.653 110.399 220.27 115.492C219.086 117.276 216.164 120.371 214.223 121.899C212.662 123.129 208.256 125.773 205.831 126.936C204.287 127.677 200.833 128.605 198.402 128.932C197.435 129.062 195.606 129.116 194.058 129.061C190.247 128.925 188.386 128.284 186.496 126.455C184.928 124.937 184.317 122.61 184.81 120.035C185.1 118.524 186.399 115.735 187.528 114.201C188.661 112.661 188.896 112.203 188.669 111.974C188.439 111.742 186.741 114.384 185.825 116.401C184.69 118.899 184.285 120.146 184.145 121.584C184.071 122.346 183.948 123.008 183.872 123.055C183.797 123.102 183.557 122.949 183.339 122.715C182.632 121.952 179.869 117.125 179.583 116.152C178.672 113.055 180.153 109.629 184.349 105.122C185.977 103.375 187.116 102.499 190.148 100.665C193.526 98.6221 194.979 97.3394 196.327 95.2109C196.824 94.4259 197.18 94.1033 197.887 93.7964C198.87 93.37 203.437 92.4062 204.476 92.4062C204.822 92.4062 205.742 92.2379 206.52 92.0321C207.298 91.8265 209.947 91.3516 212.406 90.9771C217.574 90.19 218.799 89.9006 220.11 89.1584C222.711 87.6855 222.518 85.2521 219.471 81.1153C218.829 80.2428 218.303 79.5059 218.303 79.4776C218.303 79.4494 218.598 79.266 218.957 79.0702C219.318 78.8742 219.655 78.6008 219.708 78.4626C219.794 78.236 211.172 64.6256 210.388 63.7509C209.908 63.2155 208.825 62.9732 207.973 63.2109C207.105 63.453 206.514 64.2845 205.866 66.1797C205.613 66.9172 205.343 67.678 205.266 67.8702C205.137 68.1922 204.941 68.2091 202.779 68.0848C200.492 67.9532 200.407 67.9626 199.397 68.462C198.203 69.0516 196.454 70.8426 195.183 72.7758C194.407 73.9557 194.276 74.3485 193.479 77.8726L192.617 81.691L192.666 85.1268C192.703 87.6918 192.775 88.5627 192.95 88.5627C193.351 88.5629 193.439 87.6511 193.308 84.8404C193.17 81.8832 193.339 79.9938 193.974 77.4284C195.395 71.6868 198.998 67.9924 202.489 68.6976C203.316 68.8646 203.233 69.0676 202.18 69.453C199.56 70.4123 198.465 71.2168 197.149 73.1484C195.835 75.077 194.634 78.8973 194.121 82.7804C193.91 84.3729 193.981 87.6057 194.262 89.2222L194.394 89.9774L193.722 89.5581L193.051 89.139L192.955 89.997C192.834 91.0828 191.688 93.9818 191.416 93.8904C191.304 93.8525 190.266 92.4013 189.11 90.6654C185.978 85.9612 185.45 85.7171 178.733 85.8689C170.475 86.0557 167.191 85.9675 165.529 85.5142C163.62 84.9938 162.198 84.3366 161.178 83.5035C160.736 83.1432 160.033 82.6322 159.614 82.368C159.196 82.1038 158.074 81.1451 157.122 80.2376C154.48 77.7199 153.571 75.7329 153.59 72.517C153.606 69.9609 154.384 67.6653 156.098 65.1185C156.985 63.8012 159.998 60.844 161.517 59.8003C162.145 59.3689 162.821 58.8323 163.021 58.6083C163.378 58.2065 163.378 58.2005 162.997 58.2005C162.429 58.2005 159.472 60.3895 157.806 62.0438C155.592 64.243 154.877 65.4665 153.233 69.8768C152.908 70.75 152.561 71.4143 152.463 71.3532C152.365 71.2919 152.104 70.8843 151.884 70.4473C150.346 67.402 150.407 65.0668 152.116 61.6007C153.976 57.8298 156.149 55.2496 159.71 52.5865C164.668 48.8773 165.844 48.2914 171.504 46.7103C175.728 45.5302 176.09 45.4608 178.068 45.4525C179.513 45.4466 180.572 45.553 181.491 45.7969C183.425 46.3096 185.89 47.3997 186.388 47.9618C188.338 50.1654 188.161 50.1314 199.66 50.5121C206.302 50.7321 207.361 51.0181 210.84 53.5331C211.706 54.1588 212.99 55.1915 213.694 55.828C218.923 60.5559 220.623 61.5263 225.432 62.527C228.878 63.2441 230.454 64.0927 230.781 65.4073C230.993 66.2621 230.482 66.5223 228.892 66.3697C227.933 66.2777 227.219 66.3369 226.176 66.5946L224.761 66.9441L224.45 67.9401C224.157 68.8763 224.159 68.9905 224.482 69.8433C224.856 70.8326 225.918 72.1438 226.496 72.329C227.249 72.5704 227.254 72.1864 226.508 71.3691C225.524 70.2911 225.151 69.5355 225.151 68.6206C225.151 67.5706 225.746 67.0402 226.923 67.0402C227.957 67.0402 228.039 67.1982 227.241 67.6569C226.048 68.3429 226.156 69.6394 227.506 70.8372C228.79 71.9762 230.479 72.6069 231.53 72.3403C232.008 72.2193 232.014 72.1958 231.96 70.5488C231.905 68.8963 231.899 68.8756 231.272 68.4499C230.924 68.2134 230.18 67.8848 229.617 67.7197C228.15 67.2887 228.137 67.0402 229.581 67.0402C230.565 67.0402 230.867 66.9649 231.15 66.6491C231.343 66.4339 231.613 66.3015 231.75 66.3547C231.921 66.421 232 66.2759 232 65.8966C232 65.466 231.765 65.13 230.953 64.3985C230.377 63.8798 229.963 63.3973 230.033 63.3262C230.104 63.2551 230.575 63.1968 231.081 63.1968H232V62.3515V61.506L229.574 61.3693C228.24 61.2942 226.109 61.0815 224.837 60.8964C222.818 60.6028 222.336 60.4573 221.032 59.7474C219.261 58.7833 218.562 58.2312 215.544 55.4135C212.292 52.3773 211.231 51.6222 208.981 50.7463C205.971 49.5743 203.396 49.2069 196.616 48.9817C190.785 48.7882 189.45 48.6117 188.84 47.9553C188.626 47.7243 188.169 47.2264 187.825 46.8492C186.698 45.6136 182.208 44.0345 179.399 43.8864C178.462 43.837 177.025 43.9419 175.659 44.1598ZM52.4346 47.5118C52.2649 47.7184 52.2931 47.7966 52.5632 47.8679C52.8008 47.9307 52.9176 47.8477 52.9359 47.6033C52.9673 47.1822 52.7396 47.1407 52.4346 47.5118ZM58.0293 48.3969C57.8891 48.6262 58.0672 48.9765 58.324 48.9765C58.5555 48.9765 58.557 48.4563 58.3259 48.3122C58.2285 48.2512 58.0951 48.2895 58.0293 48.3969ZM75.1353 48.9569C77.0938 49.4838 81.8403 51.541 83.3161 52.5027C84.8987 53.5341 87.447 56.1528 88.0591 57.3771C88.55 58.3585 88.5524 58.3834 88.1855 58.5819C87.5828 58.9079 83.2231 58.8393 81.4609 58.4763C77.0851 57.5748 72.2658 55.0835 69.1449 52.1098C67.8671 50.892 66.3655 49.0412 66.5248 48.8804C67.1455 48.2534 72.7033 48.3027 75.1353 48.9569ZM58.4429 49.3037C58.249 49.6202 60.3299 54.165 60.6685 54.165C60.7062 54.165 60.6635 53.7697 60.5743 53.2864C60.2979 51.7921 58.722 48.8475 58.4429 49.3037ZM26.543 49.8712C24.2229 50.7363 20.7263 52.4724 19.7622 53.2378C15.0308 56.9937 12.0277 62.9055 10.4565 71.5561C10.2463 72.7133 10.1097 74.8477 10.0433 78.0066C9.89342 85.1429 10.2613 87.6119 12.5042 94.5201C14.0284 99.2143 14.1745 99.5449 15.7723 101.915C18.3183 105.691 22.7023 109.38 25.8319 110.378C28.2149 111.139 32.2013 110.891 34.2351 109.856C36.2161 108.848 39.7193 105.641 42.0278 102.723C44.2095 99.9644 46.2785 94.2728 47.2622 88.3237C47.8297 84.8919 47.9568 79.3076 47.5466 75.8355C47.356 74.2236 47.0965 72.8317 46.9521 72.649C46.7358 72.3751 46.7157 72.7549 46.823 75.0912C46.893 76.6128 46.9544 80.0718 46.9598 82.7779C46.9706 88.2787 46.8315 89.2841 45.471 93.5356C43.9696 98.2266 41.6139 103.082 41.094 102.557C41.0454 102.508 41.6548 101.047 42.4479 99.3106C44.0718 95.7553 45.0473 93.0123 44.9598 92.2479C44.9183 91.8849 44.5702 92.6374 43.7756 94.8083C41.8705 100.013 40.3749 102.612 37.6952 105.374C33.8604 109.326 30.0881 110.606 26.3528 109.221C22.3089 107.722 19.7723 105.776 16.9545 102.012C15.1742 99.6331 13.1126 94.629 12.2847 90.6767C10.3861 81.6138 10.5385 75.2357 12.8627 66.4973C13.9221 62.5137 15.1995 60.0501 17.8385 56.9009C20.0394 54.2745 21.9277 52.8986 25.0209 51.6668C27.1866 50.8046 29.4038 50.8084 31.8528 51.6787C32.8255 52.0243 32.9352 52.03 33.1411 51.7464C33.2699 51.569 33.4654 51.4981 33.598 51.5809C33.7702 51.6883 33.7477 51.7862 33.5099 51.9616C33.2337 52.1657 33.2291 52.213 33.4761 52.3087C33.6342 52.37 33.8385 52.2818 33.9328 52.1111C34.0829 51.8403 34.2368 51.8795 35.1913 52.4311C39.4815 54.9106 42.3606 59.053 44.7943 66.2477C45.3083 67.767 45.8208 69.1031 45.9332 69.2167C46.3459 69.6335 46.136 68.2639 45.4947 66.3572C43.8937 61.5959 41.5796 57.3275 39.3272 54.9811C38.1135 53.7165 35.7951 51.9155 34.6061 51.3132C34.1752 51.0949 33.5759 50.7085 33.2744 50.4544C32.7627 50.0234 32.527 49.9846 29.7771 49.8785C28.1553 49.8159 26.7 49.8126 26.543 49.8712ZM54.8729 52.9165C55.8258 55.2455 56.0299 55.6153 56.0299 55.0124C56.0299 54.5739 54.8004 51.3501 54.4882 50.9702C53.924 50.2834 54.044 50.8907 54.8729 52.9165ZM173.216 53.1776C172.636 53.3062 171.695 53.714 171.695 53.8366C171.695 53.8598 173.257 53.8796 175.166 53.8806C178.478 53.8821 178.699 53.9061 179.964 54.3994C180.953 54.7849 181.327 54.8576 181.435 54.6848C181.675 54.3035 181.619 54.2353 180.874 54.0103C178.446 53.277 174.638 52.8629 173.216 53.1776ZM25.8772 53.6556C25.3853 54.0303 25.5217 54.0743 27.983 54.336C29.0365 54.4482 30.1979 54.6662 30.5639 54.8207C32.8207 55.7732 36.4577 59.8016 38.174 63.2501C39.0968 65.1039 40.7167 69.9229 41.2247 72.3248C41.9165 75.597 41.9957 76.6447 41.8931 81.1645C41.751 87.4366 41.277 90.1093 39.542 94.424C36.2157 102.695 31.228 107.242 26.3511 106.449C25.6759 106.339 24.299 105.844 23.0874 105.275C21.9347 104.734 20.9544 104.329 20.9091 104.375C20.7501 104.535 23.7939 106.404 24.7358 106.725C27.0837 107.523 29.7607 107.191 32.2502 105.794C34.0319 104.794 37.1182 101.758 38.4306 99.714C40.3005 96.8023 42.1275 92.2275 42.7762 88.8329C42.936 87.9974 43.2166 86.5355 43.4002 85.5843C44.059 82.1674 43.7582 76.0446 42.692 71.1718C42.2677 69.2332 40.6562 64.3181 39.8348 62.4578C38.302 58.9863 34.3422 55.0983 31.1388 53.9196C29.7067 53.3925 26.4376 53.2284 25.8772 53.6556ZM24.7715 53.9048C24.5102 54.1688 24.6456 54.5766 24.9736 54.5128C25.1568 54.4771 25.3065 54.3266 25.3065 54.1784C25.3065 53.875 24.9709 53.7034 24.7715 53.9048ZM170.828 53.9895C170.632 54.3101 171.073 54.6775 171.336 54.4123C171.555 54.1905 171.418 53.7807 171.124 53.7807C171.032 53.7807 170.899 53.8746 170.828 53.9895ZM169.221 54.499C168.537 54.847 168.466 55.2613 169.106 55.1714C169.672 55.0916 170.451 54.6646 170.415 54.4532C170.361 54.1277 169.918 54.1448 169.221 54.499ZM23.2396 54.7555C22.9639 54.9744 22.7383 55.2338 22.7383 55.332C22.7383 55.6885 23.3176 55.4967 23.9242 54.9392C24.4831 54.4258 24.5052 54.3679 24.1432 54.3627C23.9219 54.3597 23.5152 54.5364 23.2396 54.7555ZM60.5005 54.5493C60.3413 54.8095 60.5561 55.1258 60.8922 55.1258C61.0431 55.1258 61.1663 54.9529 61.1663 54.7415C61.1663 54.3437 60.7073 54.2111 60.5005 54.5493ZM183.299 54.7081C183.299 55.1562 183.865 55.4064 184.726 55.3393C185.04 55.3147 188.603 55.5298 192.643 55.8172C199.931 56.3353 201.613 56.3225 199.85 55.7615C199.324 55.5941 197.452 55.4231 194.999 55.3184C192.801 55.2244 190.618 55.0957 190.148 55.032C189.677 54.9686 188.093 54.8437 186.628 54.7548C185.163 54.6656 183.815 54.5305 183.632 54.4544C183.379 54.3493 183.299 54.4102 183.299 54.7081ZM167.613 55.3047C167.552 55.4031 167.59 55.5378 167.697 55.6043C167.923 55.7459 168.27 55.5661 168.27 55.3067C168.27 55.0728 167.755 55.0713 167.613 55.3047ZM61.5487 57.2877C62.1662 59.5864 62.3993 60.23 62.6765 60.4031C62.9666 60.5841 62.9299 60.2108 62.4773 58.3811C62.0951 56.8352 61.4391 55.318 61.153 55.318C61.0796 55.318 61.2577 56.2045 61.5487 57.2877ZM56.4104 57.9849C56.4104 58.0775 56.5209 58.246 56.656 58.3594C56.8417 58.5151 56.9084 58.4738 56.9296 58.1907C56.9452 57.9801 56.8379 57.8162 56.684 57.8162C56.5335 57.8162 56.4104 57.8921 56.4104 57.9849ZM104.25 60.0778C103.62 60.6835 102.289 61.9574 101.293 62.9086C99.7464 64.3858 99.3667 64.8764 98.6893 66.2715C97.8178 68.0666 97.3148 69.7749 97.3055 70.9719C97.2998 71.7114 97.2853 71.73 97.0036 71.3639C96.555 70.7817 96.7654 68.972 97.4991 67.1017C98.2567 65.1704 99.9319 62.9857 102.133 61.059C104.544 58.9478 106.249 58.158 104.25 60.0778ZM174.738 59.5805C171.33 60.1983 164.994 62.1382 162.753 63.2501C161.196 64.0232 159.616 65.5891 158.675 67.2929L157.951 68.6025L158.516 69.3106C159.366 70.3758 160.202 70.5284 164.751 70.4502L168.556 70.3849L170.858 69.5931C174.631 68.2964 177.811 66.5546 180.04 64.566C181.83 62.968 182.348 62.57 182.348 62.7921C182.348 63.111 180.777 64.8101 179.016 66.3976C178.122 67.2031 177.43 67.9019 177.479 67.9507C177.527 67.9995 177.871 67.9378 178.243 67.8139C178.965 67.5731 180.243 66.3609 182.538 63.7378C183.901 62.1801 184.994 61.1939 185.165 61.3668C185.209 61.4112 184.931 62.0158 184.546 62.7105C182.972 65.5534 180.627 67.7151 176.386 70.2325C175.043 71.03 173.982 71.7214 174.03 71.769C174.077 71.8167 175.598 71.0532 177.41 70.0726C180.258 68.5308 180.904 68.0919 182.175 66.8315C183.529 65.4904 185.398 62.9318 185.68 62.0344C185.841 61.5208 185.962 61.5536 186.905 62.3694C188.914 64.106 188.934 66.8603 186.96 69.7586C186.629 70.2444 185.703 71.3632 184.902 72.2447C183.392 73.9057 183.301 74.435 184.695 73.4449C187.131 71.716 189.184 67.4726 188.959 64.6354C188.843 63.1805 188.336 62.1624 187.201 61.1051C185.868 59.8645 184.631 59.3718 182.316 59.1611C179.362 58.8921 178.175 58.9578 174.738 59.5805ZM40.4365 59.679C40.4331 59.911 40.6418 60.3434 40.8999 60.6399C41.3491 61.1556 41.3698 61.1608 41.3755 60.7575C41.3789 60.5255 41.1702 60.0932 40.9121 59.7966C40.4629 59.2809 40.4422 59.2757 40.4365 59.679ZM126.434 59.4333C126.651 59.6519 132.536 61.083 133.218 61.083C134.754 61.083 134.179 60.7444 132.073 60.4085C130.899 60.2211 129.424 59.9083 128.796 59.713C127.792 59.4014 126.217 59.2146 126.434 59.4333ZM204.537 59.502C204.424 59.6867 205.83 61.7518 206.382 62.2114C207.288 62.9661 206.125 60.7285 205.112 59.767C204.856 59.5238 204.597 59.4044 204.537 59.502ZM56.9195 60.1992C56.8611 60.3533 56.9579 60.5057 57.146 60.5555C57.3652 60.6133 57.4839 60.5236 57.5016 60.2863C57.5326 59.8716 57.0703 59.8026 56.9195 60.1992ZM181.757 60.4815C182.179 60.6007 182.053 60.764 180.045 62.7012C176.587 66.0377 173.955 67.5193 169.221 68.7943C167.122 69.3596 162.894 69.5018 160.978 69.0712C160.18 68.8919 159.48 68.6694 159.424 68.5766C159.367 68.4839 160.581 67.3648 162.122 66.0895C164.417 64.1907 165.184 63.67 166.359 63.2128C167.832 62.6403 173.875 61.0811 176.44 60.6118C177.948 60.3361 180.98 60.2617 181.757 60.4815ZM30.441 60.8428C30.5146 61.0277 30.6984 61.5898 30.8493 62.0919C31.0001 62.594 31.217 63.0047 31.3311 63.0047C31.6545 63.0047 31.3966 61.3184 31.0066 60.883C30.5879 60.4156 30.2616 60.3924 30.441 60.8428ZM62.6911 61.1311C62.6941 61.5855 62.989 62.193 63.1313 62.0383C63.177 61.9885 63.2742 61.6668 63.347 61.3232C63.4631 60.7759 63.4306 60.6987 63.0838 60.6987C62.7995 60.6987 62.689 60.8203 62.6911 61.1311ZM105.136 61.2402C104.926 61.5379 104.04 62.5112 103.167 63.403C101.887 64.7111 101.392 65.3958 100.61 66.9451C99.5491 69.0439 99.2878 69.7305 99.5491 69.7305C99.6429 69.7305 99.9269 69.2801 100.18 68.7297C100.434 68.1794 100.973 67.2064 101.38 66.5678C102.342 65.0572 104.943 62.0185 105.198 62.1069C105.318 62.1482 105.399 62.9347 105.403 64.0795C105.408 65.7277 105.484 66.1781 105.973 67.4351C106.284 68.2335 106.728 69.1415 106.96 69.4528C107.364 69.9944 107.382 69.9999 107.388 69.5801C107.392 69.3387 107.18 68.7145 106.919 68.1932C106.426 67.2118 106.33 66.5567 106.612 66.1066C106.73 65.9199 106.875 66.108 107.125 66.7681C107.778 68.4966 109.178 70.3835 110.981 71.9675C114.049 74.6629 119.067 77.0602 121.559 77.0208C122.241 77.0098 122.276 76.9877 121.876 76.8257C121.627 76.7252 120.567 76.4235 119.52 76.1553C118.472 75.8872 117.213 75.4619 116.722 75.2104C113.621 73.6231 108.976 69.6008 108.169 67.8041C107.33 65.9354 107.669 66.0269 109.915 68.2751C114.931 73.2968 119.205 75.1541 126.813 75.6168C128.008 75.6896 129.2 75.8109 129.462 75.8864L129.937 76.0236L129.368 76.2531C129.054 76.3793 127.438 76.6034 125.776 76.751C124.113 76.8986 122.717 77.0555 122.674 77.0999C122.48 77.2958 123.917 77.6094 125.008 77.6094C126.502 77.6094 126.731 77.8942 125.459 78.1697C123.481 78.5981 121.18 78.2941 118.079 77.1949C114.673 75.9875 111.749 74.1052 109.207 71.4829C108.477 70.7304 107.81 70.1149 107.725 70.1149C107.385 70.1149 109.98 73.2224 110.984 74.0174C113.436 75.9592 115.968 77.3275 118.562 78.1123C121.146 78.894 126.741 78.978 128.587 78.2627C129.017 78.0961 129.111 78.7935 128.8 79.8316C128.145 82.0123 128.692 83.059 131.149 84.3231C131.611 84.5606 131.907 84.8229 131.815 84.9133C131.724 85.0028 130.543 85.3956 129.19 85.7861C123.514 87.4249 120.097 89.3275 116.802 92.6828C115.135 94.3811 114.326 95.5557 113.849 96.9735C113.235 98.7943 113.309 98.7086 112.849 98.1453C112.42 97.6199 111.04 96.8261 110.556 96.8261C109.899 96.8261 110.181 97.3376 111.087 97.7869C111.619 98.0512 112.161 98.4835 112.29 98.7478C112.545 99.2685 112.621 101.054 112.388 101.053C112.309 101.053 110.952 100.8 109.37 100.492C107.149 100.059 106.176 99.7701 105.09 99.218C102.132 97.7145 100.016 95.9381 98.0582 93.316C96.4697 91.1883 96.2249 89.8731 97.0361 87.8252C97.3123 87.1278 97.3897 87.0652 97.7873 87.2177C98.4085 87.4564 98.453 87.2462 98.453 84.0754C98.453 81.9389 98.5353 81.0486 98.8336 79.9615C99.5077 77.5043 101.177 73.7255 102.54 71.5742C103.985 69.2928 104.349 68.5775 104.067 68.5775C103.707 68.5775 103.609 68.7015 102.01 71.1895C101.257 72.3617 100.435 73.8535 100.184 74.5043C99.9328 75.1552 99.6561 75.6877 99.5689 75.6877C99.3572 75.6877 98.5863 74.1114 98.1699 72.8269C97.3496 70.2965 98.6251 66.6439 101.377 63.6436C102.705 62.1957 104.619 60.6987 105.143 60.6987C105.514 60.6987 105.514 60.7039 105.136 61.2402ZM93.0312 61.8269C92.4034 62.0094 91.7186 62.26 91.5093 62.3838C91.1834 62.5763 91.2705 62.6096 92.1152 62.6146C93.2153 62.6211 93.8899 62.413 94.6012 61.8478L95.0801 61.4673L94.6263 61.481C94.3768 61.4885 93.659 61.6441 93.0312 61.8269ZM57.3616 62.0534C57.3616 62.27 57.5102 62.7239 57.6918 63.0623L58.0223 63.6773L58.0879 63.1177C58.1549 62.5492 57.8081 61.6595 57.5197 61.6595C57.4327 61.6595 57.3616 61.8367 57.3616 62.0534ZM41.9399 62.7645C42.0231 63.055 42.4755 64.2874 42.9452 65.5029C43.4149 66.7183 43.9022 68.1451 44.0282 68.6736C44.1543 69.2021 44.3778 69.8506 44.5249 70.1149L44.7924 70.5953L44.7992 70.1001C44.8072 69.5115 43.8492 65.9942 43.2804 64.5238C42.6372 62.8609 41.5644 61.4531 41.9399 62.7645ZM63.1197 62.8584C63.2677 63.8546 63.9581 66.0938 64.1894 66.3274C64.5686 66.7104 64.4238 65.4756 63.819 63.1686C63.718 62.7831 63.4983 62.4145 63.3309 62.3498C63.0801 62.2525 63.043 62.3421 63.1197 62.8584ZM74.483 63.3229C73.0087 63.5514 72.7709 63.6152 72.7709 63.782C72.7709 63.8867 73.6193 63.9655 74.748 63.9655C76.2787 63.9655 76.7485 63.904 76.8286 63.6932C77.0006 63.2405 76.0167 63.0852 74.483 63.3229ZM66.3979 63.7182C65.4699 63.9436 65.7303 64.16 66.9781 64.2001C69.8033 64.291 72.4768 64.0699 72.2877 63.761C72.1773 63.5806 67.1155 63.5439 66.3979 63.7182ZM208.841 63.9511C209.123 64.0528 208.933 64.4025 207.631 66.1804C206.315 67.978 205.74 68.6423 205.749 68.3533C205.758 68.089 206.38 66.3019 206.891 65.0732C207.555 63.4772 207.543 63.4841 208.841 63.9511ZM211.575 66.6063C213.295 69.0476 218.929 77.81 218.837 77.9024C218.798 77.9416 218.394 78.1338 217.938 78.3292C217.147 78.6684 217.053 78.8016 215.851 81.2621C215.159 82.6797 214.508 83.8644 214.403 83.8948C214.298 83.9253 213.836 82.5884 213.375 80.9239C212.307 77.0657 211.81 75.8007 210.664 74.0278C209.762 72.6322 208.118 70.8019 207.003 69.954L206.452 69.5345L206.813 68.7243C207.736 66.6532 209.622 64.2025 210.031 64.5447C210.153 64.6473 210.848 65.5749 211.575 66.6063ZM34.0824 65.2534C33.8107 65.528 34.0017 65.8388 34.6788 66.2231C35.6126 66.7533 36.732 67.8903 37.3278 68.9138C37.8713 69.8476 38.2537 69.9978 38.0606 69.2021C37.8652 68.3961 37.2603 67.6157 36.0218 66.5717C34.5361 65.3193 34.226 65.1085 34.0824 65.2534ZM58.5658 68.0562C58.6122 69.3654 58.7016 69.8187 58.9632 70.0739C59.2855 70.3885 59.2946 70.3389 59.1654 68.9619C59.0912 68.1692 58.9124 67.2612 58.768 66.9441C58.5257 66.4112 58.5102 66.4952 58.5658 68.0562ZM46.1375 70.282C46.1375 71.089 46.4623 72.0365 46.7389 72.0365C46.9183 72.0365 46.9154 71.0761 46.7334 70.2267C46.5422 69.3349 46.1375 69.3723 46.1375 70.282ZM229.332 70.4008C229.898 70.6965 230.466 71.46 230.12 71.46C230.02 71.46 229.553 71.2928 229.08 71.0884C228.351 70.7727 227.815 70.2451 227.815 69.8439C227.815 69.7211 228.541 69.9875 229.332 70.4008ZM205.257 70.4033C206.333 70.9273 208.274 72.8336 209.267 74.3429C210.315 75.9358 210.856 77.3548 211.771 80.9177C212.437 83.5095 212.477 83.8341 212.488 86.7339L212.501 89.8053L209.267 90.4221C207.488 90.7615 204.106 91.3474 201.752 91.7244C199.398 92.1013 197.287 92.4518 197.061 92.5033C196.544 92.6211 195.91 91.5901 195.157 89.4065C194.673 88.0047 194.634 87.6657 194.634 84.9117C194.634 82.3165 194.7 81.6658 195.148 79.8568C195.793 77.2518 196.595 75.2949 197.744 73.5181C198.956 71.6451 200.163 70.6133 201.751 70.0924C202.521 69.8395 204.45 70.0107 205.257 70.4033ZM44.8514 71.7869C44.9084 72.422 45.0893 73.192 45.2533 73.498L45.5516 74.0543L45.5581 73.1895C45.5659 72.1793 45.2636 70.9544 44.96 70.765C44.8087 70.6704 44.7775 70.9639 44.8514 71.7869ZM169.317 71.2961C167.418 71.9184 164.603 72.1509 162.232 71.8813C161.106 71.7533 159.741 71.529 159.199 71.3828L158.212 71.117L158.223 71.8816C158.232 72.6048 158.281 72.667 159.114 73.0283C160.825 73.7705 161.988 73.9784 163.609 73.8323L165.131 73.6951L163.273 73.4382C161.382 73.1768 159.249 72.5145 159.417 72.2408C159.468 72.158 159.958 72.2078 160.507 72.3515C161.819 72.6955 165.864 72.6791 167.7 72.3225C171.11 71.6597 171.653 71.4735 171.396 71.054C171.241 70.8015 170.596 70.8766 169.317 71.2961ZM172.047 72.2696C171.487 72.4781 170.472 72.7622 169.792 72.9007C168.196 73.2259 168.802 73.2518 171.268 72.9637C172.642 72.8031 173.306 72.6394 173.511 72.4105C173.775 72.1163 173.767 72.0761 173.433 71.9879C173.23 71.9343 172.606 72.0609 172.047 72.2696ZM167.557 73.3219C167.74 73.3704 168.04 73.3704 168.223 73.3219C168.406 73.2737 168.256 73.2341 167.89 73.2341C167.524 73.2341 167.374 73.2737 167.557 73.3219ZM52.4595 73.7061C52.2354 73.8977 51.8382 74.4867 51.577 75.0151C51.0156 76.1506 51.0851 76.1977 52.8965 75.9108C53.5154 75.8128 54.1272 75.7734 54.2558 75.8232C54.5541 75.9389 54.7724 77.3876 54.653 78.4586C54.6024 78.9125 54.3379 79.7755 54.0655 80.3766L53.5701 81.4696L53.035 81.19C52.7375 81.0346 52.307 80.5205 52.0659 80.033C51.5219 78.9324 51.274 78.7683 51.274 79.5084C51.274 79.8254 51.3485 80.1314 51.4397 80.1883C51.5308 80.2451 51.6565 80.5507 51.7193 80.8672C51.8517 81.5363 52.8864 82.0844 53.8388 81.99C54.3201 81.9424 54.4958 81.7677 54.9264 80.9098C55.2087 80.347 55.5817 79.2415 55.7554 78.453C56.3819 75.6083 55.6312 74.0537 53.3546 73.4809C53.0223 73.3971 52.7371 73.4689 52.4595 73.7061ZM165.845 73.5141C166.028 73.5625 166.328 73.5625 166.511 73.5141C166.694 73.4659 166.544 73.4263 166.178 73.4263C165.811 73.4263 165.662 73.4659 165.845 73.5141ZM230.576 73.5698C230.39 73.8729 230.509 73.9563 231.311 74.0877C231.867 74.1788 232 74.1402 232 73.8873C232 73.7149 231.893 73.5727 231.762 73.5712C231.632 73.5698 231.341 73.5191 231.118 73.4584C230.894 73.3978 230.65 73.448 230.576 73.5698ZM157.89 74.2449C157.788 74.7966 157.872 75.0833 158.365 75.8593C160.328 78.9492 163.719 80.4585 168.175 80.2253C171.101 80.0722 172.206 79.8706 174.929 78.993C177.375 78.2043 180.674 76.5845 181.318 75.856C181.681 75.4462 181.68 75.445 181.219 75.5901C180.965 75.6702 179.699 76.2844 178.406 76.9549C175.817 78.2975 173.879 78.9839 171.665 79.3421C169.855 79.6352 164.475 79.5009 163.514 79.1388C163.148 79.0009 162.131 78.4115 161.253 77.8294C159.908 76.937 159.6 76.633 159.292 75.8929C159.091 75.4102 158.79 74.6909 158.623 74.2945C158.246 73.3967 158.05 73.3834 157.89 74.2449ZM45.3766 75.3781C45.3766 76.126 45.4805 76.5398 45.7508 76.8674C46.1136 77.3073 46.125 77.309 46.1313 76.9208C46.1423 76.2235 45.7114 74.3425 45.5406 74.3425C45.4504 74.3425 45.3766 74.8085 45.3766 75.3781ZM3.82901 77.6284C3.31499 78.0368 2.27534 79.8708 2.45493 80.0522C2.50857 80.1064 2.98816 80.0453 3.52064 79.9162C4.07537 79.7818 4.85173 79.7367 5.33817 79.8103L6.18758 79.939L6.18644 81.2242C6.18511 82.8869 5.9222 83.805 5.21452 84.6192C4.71647 85.1923 4.58578 85.2511 4.20283 85.0749C3.93821 84.953 3.67739 84.5833 3.54765 84.1461C3.42913 83.7468 3.19077 83.3016 3.01803 83.1571C2.73153 82.9174 2.71593 82.9624 2.84301 83.6626C3.17212 85.4786 4.12997 86.2661 5.52822 85.8706C6.30268 85.6518 6.38581 85.5597 6.88861 84.3617C8.43962 80.6673 6.20185 75.7429 3.82901 77.6284ZM104.962 77.4653C104.741 77.7356 103.78 79.8848 103.78 80.1074C103.78 80.1865 104.55 80.2071 105.492 80.1529L107.204 80.0543V80.7236C107.204 81.1491 107.065 81.52 106.823 81.741C106.614 81.9322 106.443 82.2967 106.443 82.5508C106.443 83.1098 106.165 82.9768 105.692 82.1918L105.353 81.6278L105.223 82.261C105.113 82.8021 105.066 82.8452 104.903 82.5577C104.603 82.03 104.35 82.1626 104.353 82.8459C104.359 84.2735 104.86 84.7196 106.458 84.7196C107.766 84.7196 108.451 83.2214 108.303 80.6841C108.194 78.8068 107.817 78.081 106.702 77.5978C105.702 77.1651 105.236 77.1295 104.962 77.4653ZM218.438 80.8282C219.612 82.0438 220.7 83.771 221.1 85.0512C221.422 86.0834 221.421 86.1037 220.979 86.9456C220.43 87.9901 219.639 88.5056 218.181 88.7706C217.568 88.8821 216.56 89.1031 215.942 89.2616C215.324 89.4203 214.607 89.4966 214.35 89.4313C213.911 89.32 213.887 89.2487 213.967 88.2775C214.029 87.5214 214.483 86.2554 215.654 83.5789C216.535 81.564 217.324 79.9154 217.406 79.9154C217.489 79.9154 217.953 80.326 218.438 80.8282ZM35.7781 85.2511C34.5414 88.0767 32.7372 92.3774 31.7691 94.8083C30.8008 97.2393 29.8697 99.5526 29.7 99.9488C29.5303 100.345 29.4742 100.669 29.5754 100.669C29.6765 100.669 29.9424 100.259 30.1663 99.7566C30.9857 97.9193 38.1375 80.2253 38.0831 80.1704C38.0521 80.1393 37.0149 82.4255 35.7781 85.2511ZM12.2767 81.5734C12.2798 84.0064 13.1018 89.4129 13.5429 89.9012C13.7615 90.1433 13.7969 90.1164 13.7958 89.709C13.7952 89.4486 13.6322 88.1113 13.4336 86.7373C13.2349 85.3633 13.0141 83.487 12.9429 82.5677C12.86 81.4981 12.7165 80.8147 12.5444 80.6704C12.3174 80.4804 12.2754 80.6222 12.2767 81.5734ZM136.738 86.1698C139.585 86.8755 140.627 88.0777 144.31 94.9044C146.064 98.1551 146.57 99.1688 146.577 99.4507C146.581 99.6041 146.217 99.5614 145.406 99.3133C143.291 98.6665 140.855 98.487 138.618 98.8131C135.364 99.2872 135.786 99.5216 139.654 99.389C143.292 99.2643 144.55 99.4336 146.165 100.266C148.688 101.566 149.7 104.728 148.456 107.421C145.954 112.838 140.118 117.58 133.647 119.454C131.445 120.092 127.628 120.266 125.863 119.809C124.338 119.414 122.945 118.616 121.909 117.543C120.888 116.487 120.521 115.58 120.521 114.122C120.521 112.658 121.002 111.261 122.086 109.575C123.968 106.65 125.66 105.032 128.701 103.246C129.486 102.786 130.384 102.193 130.698 101.93C131.199 101.51 131.222 101.451 130.885 101.445C130.674 101.441 129.432 102.104 128.126 102.917C123.976 105.503 122.099 107.753 120.421 112.151C120.129 112.918 119.837 113.545 119.772 113.545C119.707 113.545 118.348 110.886 116.753 107.635C114.765 103.588 113.816 101.445 113.738 100.832C113.348 97.7448 116.199 93.4024 120.806 90.0676C122.719 88.6824 125.463 87.5192 128.933 86.6226C132.747 85.637 134.239 85.5505 136.738 86.1698ZM96.9311 86.1939C96.9311 86.2423 96.503 87.084 95.9799 88.0642C95.1411 89.636 95.0293 89.9807 95.0333 90.9823C95.0413 93.0081 96.025 94.8967 98.223 97.1061C101.495 100.395 106.289 102.669 110.975 103.155C113.149 103.38 113.522 103.492 113.444 103.892C113.32 104.527 112.82 104.592 110.72 104.246C105.342 103.361 102.487 101.959 98.0813 98.0412C97.0922 97.1614 96.2146 96.4418 96.1313 96.4418C95.4156 96.4418 97.8971 99.0541 99.8763 100.384C103.7 102.954 109.364 105.035 112.75 105.114C113.341 105.128 113.908 105.193 114.01 105.258C114.113 105.324 114.986 106.972 115.95 108.92L117.704 112.462L117.388 113.148C115.902 116.372 113.882 117.477 109.487 117.468C104.385 117.458 98.8747 115.706 94.8385 112.812C93.1697 111.615 90.413 108.83 89.9193 107.842C89.251 106.504 88.6942 104.158 88.8121 103.177C88.9763 101.815 89.8135 99.5157 91.43 95.988C92.2467 94.2061 92.9568 92.7056 93.008 92.6539C93.1986 92.4614 93.464 92.8098 94.0629 94.0387C94.6088 95.1588 95.5564 96.357 95.7453 96.1662C95.7834 96.1277 95.5574 95.5816 95.2429 94.9525C94.2714 93.0083 93.8391 91.4785 93.9845 90.499C94.2188 88.9201 96.0758 85.7744 96.6432 85.9942C96.8015 86.0557 96.9311 86.1454 96.9311 86.1939ZM113.764 89.5234C113.535 89.6112 113.196 90.125 112.924 90.7982C112.296 92.3498 111.563 93.4011 109.895 95.1446C109.111 95.9638 108.574 96.6339 108.702 96.6339C109.437 96.6339 111.004 95.2138 112.096 93.5592C112.808 92.4804 114.328 89.5439 114.225 89.4476C114.182 89.4084 113.975 89.4425 113.764 89.5234ZM13.6683 91.268C13.7996 92.3878 14.761 94.6179 14.8858 94.0923C14.9292 93.91 14.793 93.2181 14.5832 92.555C14.3731 91.8918 14.1517 91.1116 14.0908 90.8209C13.8877 89.8508 13.5447 90.2138 13.6683 91.268ZM193.952 90.9408C193.952 90.9804 193.831 91.3591 193.684 91.7823C193.536 92.2056 193.355 93.0404 193.281 93.6375C193.187 94.3936 193.041 94.7799 192.801 94.9098C192.249 95.208 192.184 95.139 192.304 94.3877C192.44 93.5431 193.574 90.8689 193.797 90.8689C193.882 90.8689 193.952 90.9012 193.952 90.9408ZM195.774 92.5023L196.216 92.8867L195.512 94.3279C194.969 95.4404 194.706 95.7838 194.359 95.8335C194.111 95.8689 193.834 95.8222 193.742 95.7298C193.531 95.5165 194.01 92.7118 194.428 91.7121L194.741 90.965L195.036 91.5415C195.198 91.8586 195.53 92.2909 195.774 92.5023ZM21.7232 91.7208C21.6661 91.8709 21.7428 92.0972 21.8934 92.2235C22.117 92.4109 22.1676 92.3801 22.1676 92.0567C22.1676 91.5726 21.866 91.3447 21.7232 91.7208ZM97.2826 93.3281C99.2214 96.5067 100.831 97.9764 104.082 99.5358C107.126 100.996 108.772 101.596 110.079 101.722C112.9 101.992 113.035 102.024 112.633 102.321C112.056 102.747 110.903 102.643 107.951 101.899C104.933 101.139 104.338 100.855 101.401 98.7706C98.1933 96.4954 96.1701 93.9693 96.1701 92.2404C96.1701 91.8736 96.2017 91.6095 96.2401 91.6535C96.2786 91.6977 96.7477 92.451 97.2826 93.3281ZM21.9773 93.345C21.9773 93.733 22.129 93.9997 22.4824 94.2336C22.9687 94.5556 22.982 94.5547 22.8433 94.2076C22.7642 94.0095 22.6141 93.6098 22.51 93.319C22.2627 92.629 21.9773 92.643 21.9773 93.345ZM14.6855 94.7924C14.5542 95.1377 15.1438 95.3831 15.3388 95.0643C15.4187 94.9336 15.4419 94.7578 15.3903 94.6734C15.2378 94.424 14.7972 94.4984 14.6855 94.7924ZM23.0079 95.181C23.3419 96.5661 25.4239 98.7587 26.3909 98.7439C26.5269 98.742 26.274 98.4318 25.8289 98.055C25.3839 97.678 24.7217 96.9158 24.3574 96.3614C23.9929 95.8068 23.5097 95.1875 23.2831 94.9847L22.8716 94.6162L23.0079 95.181ZM15.2271 96.1055C15.2977 96.4491 15.5718 96.9462 15.8363 97.2104L16.317 97.6908L16.2034 97.0671C16.076 96.367 15.5612 95.4809 15.2821 95.4809C15.1756 95.4809 15.1524 95.7428 15.2271 96.1055ZM68.2569 96.4677C70.5704 97.642 71.7318 98.5079 73.5385 100.405C76.3477 103.356 77.3366 105.172 77.3366 107.38C77.3366 109.461 76.1803 112.742 75.1998 113.442C74.9626 113.611 74.3205 113.882 73.773 114.044C73.2257 114.206 72.7284 114.419 72.6679 114.518C72.5264 114.75 73.6387 114.75 74.4368 114.519C74.8386 114.402 75.0537 114.407 75.0537 114.532C75.0537 114.911 73.2362 118.387 72.5759 119.271C71.7706 120.35 70.278 121.3 68.5856 121.812C67.148 122.247 63.1971 122.996 51.9398 124.967C50.3703 125.242 48.8722 125.515 48.6106 125.573C48.2714 125.648 48.9074 124.916 50.8273 123.022C53.4562 120.429 55.4982 117.909 56.2746 116.3C56.5301 115.77 56.8272 115.455 57.1537 115.368C57.4249 115.295 60.2306 115.193 63.3883 115.14C68.1239 115.061 69.148 114.997 69.234 114.77C69.323 114.536 68.5015 114.498 63.6337 114.511C60.4961 114.519 57.8526 114.478 57.759 114.42C57.6652 114.362 57.9656 113.646 58.4263 112.829C58.8871 112.012 59.264 111.266 59.264 111.17C59.264 111.075 59.6705 111.045 60.1676 111.103C60.6647 111.161 63.083 111.15 65.5418 111.079C69.9806 110.95 70.0189 110.946 70.9109 110.416C72.6111 109.408 73.2782 107.357 72.7067 104.897C72.2287 102.839 71.8318 102.165 69.3466 99.1913C66.5071 95.7936 66.412 95.6731 66.5691 95.6731C66.6364 95.6731 67.3961 96.0307 68.2569 96.4677ZM65.6588 96.6316C67.7543 98.0661 70.1671 100.508 70.9128 101.949C72.2186 104.473 72.5428 106.711 71.8315 108.293C71.2301 109.631 69.8593 110.189 68.3842 109.697C67.7914 109.5 67.6344 109.352 67.6344 108.991C67.6344 108.476 64.79 105.364 63.6944 104.68C62.4337 103.893 62.8172 104.56 64.6266 106.302C66.3577 107.968 67.2517 109.109 67.2532 109.653C67.2547 110.142 66.8313 109.86 65.5955 108.546C64.3688 107.243 62.4038 105.697 62.2155 105.887C62.1647 105.938 62.8037 106.653 63.6354 107.476C65.0168 108.842 65.5373 109.578 65.2943 109.823C65.082 110.038 63.7182 109.253 62.7491 108.358C62.1756 107.828 61.6256 107.395 61.5267 107.395C61.1321 107.395 61.9431 108.481 62.6725 108.93C63.4901 109.433 63.5274 109.485 63.3037 109.806C63.1667 110.003 60.3571 109.909 60.1514 109.701C60.0991 109.648 60.3999 108.61 60.8197 107.395C61.9941 103.996 63.4043 99.4315 63.8594 97.5571C64.0854 96.6266 64.3308 95.8652 64.4048 95.8652C64.4788 95.8652 65.043 96.2102 65.6588 96.6316ZM222.631 96.2807C222.343 96.387 222.108 96.5651 222.108 96.6768C222.108 96.9854 224.206 96.711 224.557 96.3564C224.824 96.0859 224.772 96.059 224.003 96.0726C223.536 96.0809 222.919 96.1746 222.631 96.2807ZM219.572 96.7144C219.483 96.9487 219.17 97.0183 218.208 97.0183C217.039 97.0183 215.815 97.3455 215.585 97.7193C215.53 97.8094 216.295 97.8365 217.286 97.7794C218.527 97.7081 219.138 97.593 219.25 97.4091C219.366 97.2204 219.745 97.1558 220.545 97.1889C221.426 97.2252 221.702 97.1689 221.791 96.9347C221.882 96.6952 221.761 96.6333 221.198 96.6312C220.809 96.6299 220.31 96.5797 220.089 96.5198C219.825 96.4481 219.647 96.5148 219.572 96.7144ZM16.372 98.4115C16.4422 98.6492 16.7047 99.0581 16.9556 99.3198L17.4116 99.796V99.3147C17.4116 98.7239 16.921 97.9791 16.532 97.9791C16.3229 97.9791 16.2793 98.0971 16.372 98.4115ZM134.218 99.9008L133.552 100.269L134.275 100.277C134.917 100.284 136.12 99.8479 136.12 99.6075C136.12 99.371 134.811 99.5727 134.218 99.9008ZM209.772 99.7076C208.652 99.9753 208.6 100.285 209.676 100.285C210.845 100.285 211.996 99.9298 211.615 99.6863C211.311 99.4912 210.646 99.4989 209.772 99.7076ZM207.126 100.291C206.891 100.387 206.698 100.554 206.698 100.663C206.698 101.005 207.776 100.88 208.247 100.484L208.696 100.106L208.125 100.112C207.811 100.115 207.362 100.196 207.126 100.291ZM204.282 101.235C203.104 101.664 201.752 102.407 201.752 102.626C201.752 102.839 201.706 102.849 203.395 102.279C204.891 101.774 206.318 101.128 206.318 100.954C206.318 100.745 205.207 100.899 204.282 101.235ZM205.391 104.324C202.162 105.01 199.823 105.932 197.086 107.6C193.443 109.819 190.606 112.658 189.233 115.456C188.557 116.833 188.531 116.965 188.531 118.915C188.531 120.828 188.564 121.003 189.121 122C191.197 125.716 197.352 127.06 203.728 125.191C206.118 124.491 207.13 123.922 205.985 123.922C205.653 123.922 204.928 124.102 204.375 124.323C202.667 125.006 200.266 125.45 198.261 125.455C196.332 125.459 194.766 125.068 192.166 123.934C190.751 123.316 191.247 123.254 193.031 123.826C199.192 125.8 205.625 124.107 212.256 118.769C215.363 116.266 216.342 115.176 217.366 113.08C218.304 111.16 218.312 111.15 218.237 112.046C218.038 114.425 214.662 118.496 210.656 121.187C209.354 122.061 209.334 122.087 209.825 122.252C210.42 122.452 210.285 122.541 213.274 119.982C215.819 117.804 216.741 116.646 217.971 114.087C219.367 111.183 219.518 110.237 218.868 108.482C218.218 106.727 216.106 105.019 213.566 104.192C213.082 104.035 211.67 103.871 210.408 103.826C208.404 103.754 207.791 103.814 205.391 104.324ZM195.837 105.459C193.758 106.855 191.86 108.44 191.86 108.778C191.86 109.047 192.476 108.625 195.379 106.368C198.346 104.061 198.267 104.128 198.015 104.128C197.905 104.128 196.925 104.727 195.837 105.459ZM214.023 105.752C215.069 106.152 215.959 106.51 216 106.548C216.125 106.664 215.252 108.961 214.624 110.166C214.265 110.853 213.239 112.139 212.029 113.418L210.028 115.533L211.169 114.813C212.855 113.75 214.573 111.685 216.11 108.875C216.503 108.156 216.865 107.608 216.915 107.658C217.127 107.873 216.499 110.092 215.894 111.263C214.691 113.592 212.027 116.394 209.23 118.269C206.966 119.787 203.585 121.402 201.805 121.816C200.847 122.039 199.951 122.359 199.813 122.527C199.589 122.802 199.688 122.82 200.815 122.714C203.737 122.441 208.291 120.101 212.043 116.946C213.76 115.503 215.69 113.015 216.649 111.011C217.088 110.093 217.523 109.336 217.616 109.329C217.974 109.303 217.52 111.396 216.89 112.68C215.656 115.195 213.259 117.626 209.742 119.932C205.503 122.712 201.622 123.922 196.943 123.922C195.098 123.922 193.371 123.592 193.794 123.321C193.933 123.232 194.92 123.158 195.986 123.156C197.07 123.154 197.977 123.068 198.043 122.961C198.191 122.718 198.443 122.756 195.569 122.594C193.353 122.469 192.941 122.388 191.603 121.808C190.246 121.221 189.737 120.814 190.012 120.535C190.068 120.479 190.742 120.672 191.51 120.965C192.786 121.451 193.135 121.498 195.569 121.506C197.735 121.514 198.357 121.453 198.899 121.181L199.564 120.845L197.591 120.926C195.025 121.03 192.234 120.756 191.23 120.302C190.07 119.778 189.668 119.241 189.69 118.242C189.723 116.719 190.107 116.423 196.264 113.166C199.335 111.542 202.318 109.961 202.894 109.653C203.491 109.333 204.715 108.321 205.747 107.293C208.111 104.938 208.271 104.858 210.408 104.951C211.814 105.012 212.46 105.156 214.023 105.752ZM201.741 108.083C200.439 108.99 198.81 110.022 198.12 110.377C197.43 110.731 196.42 111.286 195.876 111.61C194.934 112.172 194.143 112.372 194.143 112.05C194.143 111.616 194.965 110.884 196.964 109.54C200.792 106.966 201.799 106.472 203.263 106.448L204.108 106.434L201.741 108.083ZM29.8288 116.36C29.343 117.058 28.8259 118.078 28.8259 118.339C28.8259 118.465 29.4695 118.541 30.538 118.541H32.2502V120.545V122.549L31.6095 123.235C31.2569 123.613 30.8864 123.922 30.7855 123.922C30.6849 123.922 30.3259 123.533 29.9877 123.057C29.3258 122.126 28.9062 121.916 29.1225 122.625C29.3993 123.531 29.7904 124.091 30.422 124.485L31.076 124.893L31.7847 124.407C32.1747 124.14 32.5555 123.922 32.6312 123.922C32.7069 123.922 32.9183 123.442 33.1009 122.855C33.5543 121.399 33.4607 117.912 32.947 117.12C32.6012 116.587 31.7512 116.124 30.7443 115.921C30.3088 115.833 30.1393 115.914 29.8288 116.36ZM207.543 117.11C207.189 117.397 207.191 117.401 207.602 117.2C207.837 117.084 208.03 116.95 208.03 116.901C208.03 116.754 207.931 116.796 207.543 117.11ZM204.225 118.913C204.068 119.005 203.041 119.396 201.942 119.782C199.472 120.648 199.148 120.918 200.706 120.809C201.645 120.743 202.083 120.58 203.179 119.891C203.911 119.43 204.592 118.981 204.691 118.893C204.933 118.679 204.599 118.693 204.225 118.913ZM198.458 122.649C198.399 122.805 198.549 123.001 198.825 123.128C199.208 123.304 199.313 123.287 199.408 123.036C199.524 122.732 199.193 122.393 198.776 122.387C198.657 122.386 198.514 122.503 198.458 122.649Z" fill="#939597"/>
</svg>
