<svg width="187" height="142" viewBox="0 0 187 142" fill="none" xmlns="http://www.w3.org/2000/svg">
<rect width="187" height="141.667" fill="#C83642"/>
<path fill-rule="evenodd" clip-rule="evenodd" d="M112.89 46.309C111.844 46.0416 105.36 45.6016 99.8992 45.4278C95.004 45.272 91.0671 45.3062 85.8005 45.5504C62.7304 46.6201 42.7715 51.865 32.5667 59.5394C22.3892 67.1934 22.3892 76.7263 32.5666 84.3396C41.9317 91.3451 59.5033 96.4019 79.9517 97.9758C85.6155 98.4118 87.4281 98.4736 94.543 98.4736C101.66 98.4736 103.538 98.4094 109.073 97.9764C119.223 97.1823 128.748 95.551 137.024 93.1896C148.584 89.891 157.227 85.0856 161.292 79.6986C163.105 77.2951 164.175 74.4524 164.175 72.0373C164.175 69.5373 163.136 66.5992 161.438 64.2945C159.994 62.3353 156.181 58.9615 154.509 58.1636C153.325 57.5988 152.83 57.5805 139.856 57.6217C128.293 57.6583 127.634 57.6721 127.05 57.8907C126.148 58.2284 125.47 58.7402 125.042 59.407C124.834 59.731 123.326 63.5082 121.691 67.8005C120.057 72.0929 118.676 75.682 118.623 75.7763C118.552 75.9025 118.494 75.8547 118.402 75.5944C117.671 73.5343 112.732 60.4545 112.502 59.9694C111.781 58.4466 110.61 57.2924 109.449 56.9611C107.382 56.3707 105.584 57.4277 104.286 59.9962C103.79 60.9784 96.5704 80.5106 96.2882 81.6341C95.8227 83.487 95.9247 84.4978 96.6403 85.1251C97.6035 85.9694 99.3051 85.9592 100.43 85.1023C101.007 84.6632 101.51 83.6256 102.125 81.6034L102.658 79.8515H114.168L114.49 80.9272C115.455 84.1477 115.599 84.4741 116.339 85.1227C117.035 85.733 118.298 85.9306 119.401 85.6015C119.961 85.4345 120.809 84.6655 121.152 84.014C121.272 83.787 123.267 78.8986 125.586 73.1511L129.803 62.7009L134.623 62.6343L134.623 73.1792C134.624 80.4936 134.666 83.874 134.76 84.2131C134.943 84.8712 135.663 85.5688 136.348 85.7532C137.117 85.9599 138.395 85.8643 138.994 85.5551C139.544 85.2711 139.976 84.7133 140.162 84.046C140.24 83.7641 140.286 79.7623 140.286 73.1203L140.287 62.6395H152.466L153.676 63.5493C155.034 64.5709 156.692 66.1627 157.385 67.1111C158.612 68.7904 159.159 70.2677 159.167 71.9216C159.173 73.1791 158.956 74.0532 158.329 75.2952C154.387 83.1001 136.746 90.0175 114.429 92.509C86.9941 95.572 57.535 92.0481 40.8856 83.7116C33.9826 80.2553 30.2402 76.4238 29.8934 72.4582C29.7457 70.7694 30.4435 68.6816 31.7176 67.0004C33.5565 64.5736 36.942 62.093 41.3495 59.9428C51.2234 55.1259 65.5135 51.8725 81.8603 50.7195C89.9528 50.1488 100.134 50.1808 108.149 50.8023C109.605 50.9151 111.299 51.0107 111.913 51.0145C112.898 51.0205 113.081 50.9863 113.464 50.7251C114.795 49.815 114.99 48.1047 113.893 46.9654C113.565 46.625 113.206 46.3898 112.89 46.309ZM105.931 69.6273C106.82 66.8997 107.66 64.3223 107.797 63.8996C108.034 63.168 108.065 63.1312 108.442 63.1312H108.838L112.419 74.6264L108.418 74.6588C106.218 74.6767 104.394 74.6677 104.365 74.6389C104.336 74.6101 105.041 72.355 105.931 69.6273Z" fill="white"/>
<path fill-rule="evenodd" clip-rule="evenodd" d="M65.3114 63.0189C64.184 60.2524 61.5295 58.2558 58.2803 57.7301C57.8172 57.6552 55.4236 57.6003 52.5995 57.5998L47.7189 57.5988L47.0604 57.9423C46.581 58.1924 46.3008 58.449 46.0304 58.8854L45.6592 59.485L45.6254 71.2839C45.6033 78.9905 45.6355 83.3203 45.7184 83.7672C45.9941 85.2568 46.7379 85.8142 48.4499 85.8142C49.437 85.8142 49.556 85.7865 50.0439 85.4442C50.3628 85.2204 50.6954 84.8333 50.8856 84.4644C51.1999 83.855 51.2002 83.8514 51.239 80.0793L51.2776 76.3041L59.2038 76.2184L60.2474 75.8579C62.6846 75.0164 64.6326 73.0863 65.4752 70.6786C66.2884 68.3546 66.2221 65.2531 65.3114 63.0189ZM51.2617 71.3886V62.4898L54.0014 62.5469C56.9602 62.6085 57.4446 62.6975 58.465 63.3674C59.0402 63.7451 59.6915 64.659 59.9035 65.3864C59.9855 65.6674 60.0531 66.3954 60.0536 67.0039C60.0544 67.9358 60.0042 68.2195 59.7357 68.8014C59.2923 69.762 58.6764 70.3951 57.7066 70.8868L56.8781 71.3069L51.2617 71.3886Z" fill="white"/>
<path fill-rule="evenodd" clip-rule="evenodd" d="M91.2166 64.4312C90.6526 61.2026 88.5835 58.9586 85.2431 57.9524C84.3579 57.6858 84.1195 57.6741 78.9666 57.6422C74.9909 57.6176 73.5068 57.6477 73.2089 57.7588C72.6092 57.9821 71.9784 58.5328 71.7016 59.0747C71.4605 59.5465 71.4555 59.8008 71.4583 71.763C71.4608 83.3681 71.4721 83.9943 71.6882 84.4618C72.1272 85.4113 72.9403 85.8757 74.1645 85.8757C75.375 85.8757 76.1407 85.4435 76.6698 84.4618C76.928 83.9829 76.9359 83.8283 76.9707 78.5835L77.0064 73.1969L81.7728 79.1368C87.0938 85.7676 87.201 85.8757 88.4573 85.8757C89.4016 85.8757 90.4766 85.4713 91.0527 84.8995C91.8564 84.1015 91.9515 82.8977 91.2989 81.778C91.1192 81.4696 89.4319 79.5815 87.5493 77.5822C85.6667 75.5829 84.1983 73.928 84.2862 73.9045C84.3368 73.891 84.5306 73.8509 84.7908 73.7993C84.9839 73.761 85.2137 73.7165 85.4487 73.672C86.9476 73.388 87.9576 72.8415 89.1367 71.6767C91.0887 69.7483 91.7455 67.4602 91.2166 64.4312ZM76.9965 70.1588V62.6395H79.4425C81.9477 62.6395 82.8622 62.736 83.5803 63.0762C84.2751 63.4054 84.9705 64.091 85.3079 64.7798C86.2563 66.7151 85.4922 68.8005 83.4979 69.7199C82.7223 70.0775 82.7218 70.0775 79.8594 70.1182L76.9965 70.1588Z" fill="white"/>
</svg>
