<svg width="51" height="36" viewBox="0 0 51 36" fill="none" xmlns="http://www.w3.org/2000/svg">
<rect x="0.75" y="0.75" width="49.5" height="34.5" rx="5.25" fill="white" stroke="black" stroke-width="1.5"/>
<path fill-rule="evenodd" clip-rule="evenodd" d="M25.7687 25.2444C23.9926 26.7416 21.6886 27.6454 19.171 27.6454C13.5537 27.6454 9 23.1459 9 17.5954C9 12.0449 13.5537 7.54541 19.171 7.54541C21.6886 7.54541 23.9926 8.44923 25.7687 9.94641C27.5448 8.44923 29.8488 7.54541 32.3663 7.54541C37.9837 7.54541 42.5374 12.0449 42.5374 17.5954C42.5374 23.1459 37.9837 27.6454 32.3663 27.6454C29.8488 27.6454 27.5448 26.7416 25.7687 25.2444Z" fill="#ED0006"/>
<path fill-rule="evenodd" clip-rule="evenodd" d="M25.7686 25.245C27.9557 23.4017 29.3427 20.6586 29.3427 17.5954C29.3427 14.5322 27.9557 11.7892 25.7686 9.9458C27.5446 8.44899 29.8482 7.54541 32.3655 7.54541C37.9828 7.54541 42.5365 12.0449 42.5365 17.5954C42.5365 23.1459 37.9828 27.6454 32.3655 27.6454C29.8482 27.6454 27.5446 26.7418 25.7686 25.245Z" fill="#F9A000"/>
<path fill-rule="evenodd" clip-rule="evenodd" d="M25.7687 25.2445C27.9555 23.4012 29.3421 20.6584 29.3421 17.5955C29.3421 14.5327 27.9555 11.7899 25.7687 9.94653C23.5819 11.7899 22.1953 14.5327 22.1953 17.5955C22.1953 20.6584 23.5819 23.4012 25.7687 25.2445Z" fill="#FF5E00"/>
</svg>
