<svg width="55" height="73" viewBox="0 0 55 73" fill="none" xmlns="http://www.w3.org/2000/svg">
<path d="M45.3632 20.4136C45.3632 26.8097 42.3694 32.571 37.7422 36.2908L24.9497 40.8271L12.1572 36.2908C7.52998 32.571 4.53613 26.8097 4.53613 20.4136C4.53613 9.16327 13.6997 0 24.9497 0C36.1997 0 45.3632 9.16327 45.3632 20.4136Z" fill="#F2F2F2"/>
<path d="M45.3632 36.2908V45.3635L30.1764 49.8998L13.6088 45.3635H4.53613V36.2908H12.1572L24.9497 40.8271L37.7422 36.2908H45.3632Z" fill="#C5C5C5"/>
<path d="M54.4365 54.436H40.8274L26.7746 58.9723L13.6094 54.436V45.3633H54.4365V54.436Z" fill="#F2F2F2"/>
<path d="M40.8271 63.5087L23.3721 68.0451L4.53634 63.5087H0V54.436H40.8271V63.5087Z" fill="#C5C5C5"/>
<path d="M4.53613 63.5088H45.3632V72.5815H4.53613V63.5088Z" fill="#F2F2F2"/>
<path d="M37.7432 36.2908C34.2501 39.1487 29.8046 40.8271 24.9507 40.8271C20.0968 40.8271 15.6512 39.1487 12.1582 36.2908H37.7432Z" fill="#9B9B9B"/>
<path d="M21.3891 42.4187H17.6223V37.2031H21.3891V34.1607H17.6223V28.6554H21.3891V15.5199H33.607C36.6333 15.5199 39.0963 16.357 40.9958 18.0311C42.9274 19.7052 43.8933 21.975 43.8933 24.8403C43.8933 26.7398 43.4426 28.3979 42.5411 29.8144C41.6718 31.231 40.4484 32.3095 38.8709 33.05C37.3255 33.7905 35.5709 34.1607 33.607 34.1607H27.9085V37.2031H40.0782V42.4187H27.9085V47.3928H21.3891V42.4187ZM33.1724 28.6554C34.428 28.6554 35.4421 28.3335 36.2148 27.6896C36.9875 27.0135 37.3738 26.0798 37.3738 24.8886C37.3738 23.6974 36.9875 22.7638 36.2148 22.0877C35.4421 21.3794 34.428 21.0252 33.1724 21.0252H27.9085V28.6554H33.1724Z" fill="#C5C5C5"/>
</svg>
