<svg width="160" height="169" viewBox="0 0 160 169" fill="none" xmlns="http://www.w3.org/2000/svg">
<path fill-rule="evenodd" clip-rule="evenodd" d="M58.5286 -26.3028C54.9695 -25.7168 52.0685 -23.2686 52.0685 -20.8506C52.0685 -19.699 51.387 -18.1415 50.554 -17.3911C48.6352 -15.6617 48.614 -12.9126 50.5048 -11.0294C52.0306 -9.50963 56.5143 -7.97482 59.4517 -7.96804C61.0563 -7.96351 61.1555 -7.65504 61.1555 -2.68407C61.1555 1.45577 60.9154 2.59537 60.0431 2.59537C59.432 2.59537 59.0874 2.17151 59.2782 1.65262C59.4691 1.13448 59.3411 0.266386 58.9943 -0.275135C58.4839 -1.07233 57.3624 -1.09119 53.1332 -0.373936C50.2572 0.113281 47.3319 1.01154 46.633 1.62169C45.8697 2.28766 44.7354 2.53353 43.7933 2.23562C39.6732 0.933104 44.3423 -0.925262 53.583 -1.66061C56.7066 -1.9095 59.4039 -2.24059 59.5758 -2.39672C59.7485 -2.55284 55.8979 -2.60638 51.0182 -2.51588C41.043 -2.33035 42.0365 -2.91636 38.3374 4.96207C36.9554 7.90499 36.0013 8.79118 32.3302 10.5379C23.6143 14.6876 21.9574 18.4269 26.301 24.1446C28.1168 26.5339 28.556 27.8658 28.5727 31.0312C28.5924 34.7419 27.427 38.7973 26.3403 38.7973C26.067 38.7973 25.0992 40.1164 24.1898 41.7281C22.2823 45.1085 22.1406 48.6125 23.6536 54.9252C25.3362 61.9393 27.8912 63.9176 39.3945 67.1124C43.4904 68.2498 44.6551 69.7197 41.4595 69.7197C36.9388 69.7197 32.3559 71.4936 28.5788 74.705C26.3835 76.5709 23.6082 78.2928 22.4102 78.5311C21.213 78.7694 20.0491 79.2604 19.825 79.6217C19.6008 79.983 18.4354 80.2786 17.2352 80.2786C16.035 80.2786 14.8696 80.5743 14.6454 80.9355C14.4213 81.2968 13.2938 81.7991 12.1397 82.0525C9.59688 82.6106 2.71503 88.9542 0.937015 92.3791C-0.375291 94.9072 -0.342727 96.2233 1.24749 104.832C2.83392 113.417 3.48818 114.82 7.03587 117.251C8.89718 118.527 10.42 120.068 10.42 120.675C10.42 121.283 9.33563 122.746 8.01045 123.925C4.73158 126.843 4.04702 132.436 6.08023 139.688C6.86246 142.479 7.78403 146.29 8.12858 148.157C8.70106 151.259 8.58823 151.685 6.82233 153.118C5.03902 154.563 4.93073 154.993 5.42067 158.674C6.66861 168.041 14.1244 176.948 19.1192 175.039C20.4225 174.542 20.2044 173.782 23.2917 189.579C25.0795 198.727 25.4074 201.776 24.8281 203.866C24.0565 206.649 24.4457 208.035 25.5142 206.312C26.0321 205.478 26.201 205.481 26.5054 206.334C27.3437 208.684 27.8465 206.16 27.1468 203.118C26.3865 199.811 24.3988 189.959 23.2106 183.605C22.8615 181.738 22.2573 178.916 21.8673 177.333C20.9639 173.666 22.5011 172.8 25.2969 175.401C28.734 178.599 29.3701 180.571 33.1215 199.643C33.8371 203.279 34.6443 206.475 34.9154 206.745C36.0937 207.918 35.996 206.169 34.5754 200.646C33.7394 197.397 33.1699 194.015 33.31 193.131C33.7015 190.657 36.648 196.686 37.3242 201.346C37.9065 205.357 39.1287 208.488 39.1726 206.081C39.1847 205.376 38.5418 201.303 37.7429 197.03C36.944 192.757 36.0785 187.696 35.8188 185.782L35.3478 182.303L38.582 181.871C40.3615 181.633 41.879 181.502 41.9547 181.579C42.0305 181.656 42.6711 185.105 43.3776 189.242C44.0841 193.379 44.9663 197.559 45.3366 198.531C45.7076 199.501 46.0105 201.611 46.0105 203.219C46.0105 204.827 46.4043 206.384 46.8859 206.681C47.516 207.069 47.6235 206.5 47.2706 204.651L46.7792 202.083L48.2717 203.968C49.0918 205.005 49.771 206.108 49.7801 206.42C49.7892 206.731 50.1436 206.985 50.5684 206.985C50.9925 206.985 50.1565 204.694 48.7109 201.894C46.3543 197.329 44.749 191.825 44.2818 186.705C43.9478 183.043 45.8659 184.481 49.4227 190.559C51.4332 193.993 54.4228 199.095 56.0675 201.894C59.0708 207.01 60.0817 207.753 61.7613 206.08C62.4678 205.377 62.6699 205.377 62.6699 206.08C62.6699 206.578 62.9729 206.985 63.3431 206.985C63.7134 206.985 63.9686 206.392 63.9111 205.665C63.8429 204.809 64.4404 204.257 65.6156 204.091C67.1256 203.878 67.3565 204.096 67.0112 205.41C66.644 206.809 66.9295 206.985 69.5563 206.985C71.6266 206.985 72.5141 206.659 72.5141 205.898C72.5141 205.3 72.8746 204.59 73.3146 204.319C74.5913 203.533 77.8149 204.643 77.8149 205.868C77.8149 206.66 78.641 206.978 80.6545 206.963C82.9073 206.944 83.2269 206.784 82.2008 206.188C80.7022 205.318 81.1187 203.537 83.317 201.413C84.9246 199.86 84.6172 199.643 87.7348 204.534C88.5943 205.882 89.6514 206.985 90.0853 206.985C90.5449 206.985 90.4404 206.371 89.8339 205.508C80.7212 192.544 79.9109 191.138 78.5191 185.858C77.7179 182.817 76.5283 179.519 75.8763 178.528C75.2243 177.537 74.7972 176.42 74.9275 176.047C75.1062 175.536 95.3565 201.805 98.4089 206.507C98.6982 206.954 99.154 207.101 99.4221 206.834C99.9083 206.35 97.8334 203.112 94.712 199.482C93.0567 197.558 91.8269 195.913 86.9571 189.114C85.5297 187.121 82.5015 183.008 80.2274 179.974C77.1697 175.894 76.3148 174.238 76.944 173.612C78.0125 172.547 80.3683 174.646 85.2707 181.028C91.6777 189.368 106.776 206.985 107.518 206.985C108.232 206.985 105.556 203.546 97.8319 194.541C93.2286 189.174 92.3918 188.158 85.8023 179.944C83.0224 176.479 80.9241 173.468 81.1392 173.254C83.738 170.666 103.638 186.33 112.494 197.935C117.551 204.561 120.221 207.596 120.221 206.72C120.221 206.374 119.535 205.223 118.696 204.161C116.757 201.706 117.195 201.279 120.112 202.781C121.38 203.434 123.145 203.968 124.035 203.968C124.924 203.968 129.702 201.866 134.652 199.296C142.893 195.018 145.435 194.233 144.106 196.375C143.832 196.816 141.838 198.016 139.676 199.04C132.609 202.389 125.415 206.377 125.782 206.742C125.979 206.938 130 205.122 134.716 202.706C139.432 200.289 143.552 198.199 143.872 198.061C144.191 197.922 144.487 199.958 144.528 202.586C144.622 208.547 145.777 205.806 145.891 199.347C146.009 192.75 145.466 192.704 134.24 198.35C125.442 202.776 124.281 203.173 122.16 202.475C118.661 201.325 112.25 195.379 110.396 191.565C108.392 187.441 109.087 185.649 113.21 184.311C114.775 183.802 118.511 182.248 121.511 180.857C124.511 179.464 127.355 178.325 127.832 178.325C128.911 178.325 139.22 188.164 138.819 188.811C138.228 189.763 131.579 188.755 131.579 187.713C131.579 186.892 130.916 186.938 128.172 187.952C126.298 188.644 124.764 189.439 124.764 189.719C124.764 190 126.187 190.796 127.926 191.489C130.78 192.626 131.152 192.634 131.75 191.571C132.649 189.972 139.722 189.969 142.012 191.567C143.544 192.635 143.695 192.631 143.695 191.52C143.695 190.506 144.464 190.338 148.239 190.524C152.984 190.758 154.119 191.538 150.889 192.345C149.848 192.606 148.996 193.121 148.996 193.491C148.996 194.454 149.337 194.358 152.486 192.507C155.33 190.836 158.473 190.59 179.096 190.424C181.283 190.407 183.072 190.06 183.072 189.654C183.072 189.191 175.267 188.914 162.079 188.91L141.085 188.905L137.846 185.677L134.605 182.451L145.587 176.972C151.627 173.959 156.568 171.215 156.568 170.876C156.568 170.536 151.504 172.822 145.313 175.954L134.059 181.651L131.625 179.611C127.217 175.916 126.47 175.986 115.002 181.155C106.119 185.16 104.006 185.909 102.861 185.462C101.929 185.099 102.15 184.744 103.872 183.836C105.083 183.198 106.957 182.401 108.037 182.065C110.913 181.168 122.526 176.973 138.016 171.235C156.049 164.555 156.189 164.498 155.322 164.21C154.555 163.956 146.545 166.709 130.443 172.763C125.446 174.642 118.971 177.039 116.056 178.089C113.14 179.139 108.607 180.828 105.981 181.842L101.206 183.686L96.1364 179.978C86.9306 173.244 85.2518 172.366 81.2225 172.182C79.14 172.087 76.8622 172.27 76.1595 172.59C75.0661 173.087 74.9646 172.865 75.4538 171.034C75.999 168.993 76.5253 168.77 87.3312 166.021C93.5504 164.439 99.8318 162.854 101.289 162.501C102.747 162.146 108.54 160.617 114.163 159.101C119.785 157.585 127.793 155.517 131.958 154.504C145.341 151.25 156.568 147.963 156.568 147.297C156.568 146.378 157.333 146.215 138.516 151.138C110.093 158.573 87.5099 164.275 76.4897 166.798C75.01 167.137 74.7859 166.886 74.7859 164.891C74.7859 162.697 74.9805 162.556 79.14 161.737C85.6879 160.448 88.1376 159.599 95.8509 155.947C108.474 149.973 115.677 140.688 115.677 130.393C115.677 125.596 113.863 119.606 111.898 117.917C110.736 116.918 110.564 115.96 110.883 112.261C111.209 108.497 110.975 107.266 109.376 104.312L107.484 100.818L109.016 98.3079C111.185 94.7563 111.674 88.0522 110.02 84.5783C108.761 81.9386 108.77 81.7712 110.278 79.6624C111.136 78.4617 112.263 75.9004 112.781 73.9697C113.602 70.9114 113.557 70.1783 112.429 68.2762C111.716 67.0755 111.134 65.5822 111.134 64.9577C111.134 64.3324 109.726 62.0479 108.005 59.8796C105.176 56.3152 105.005 55.8665 106.216 55.1915C108.687 53.8143 113.493 49.1125 114.59 46.9993C115.188 45.8476 115.677 42.9861 115.677 40.6406C115.677 37.0732 115.318 35.9245 113.489 33.6264C111.029 30.5372 105.735 27.4736 100.301 25.9931C98.3006 25.4486 96.9505 24.7162 97.3011 24.367C97.6517 24.0178 101.333 22.6248 105.483 21.271C112.801 18.8847 113.027 18.7437 113.027 16.558C113.027 14.8392 112.529 14.0684 110.923 13.3013C108.954 12.3616 108.828 12.0177 108.951 7.92912C109.099 3.00038 108.646 1.84117 106.572 1.84117C104.769 1.84117 103.565 3.9997 103.55 7.25938C103.529 11.5418 102.817 12.0048 97.7637 11.0176C95.3299 10.5424 92.4865 10.065 91.4453 9.95718C89.9482 9.80182 89.06 8.76553 87.2017 5.00657C85.9091 2.39174 84.2053 -0.184631 83.4154 -0.718609C80.7371 -2.5287 65.6989 -4.29128 65.6989 -2.79494C65.6989 -2.44121 68.8506 -1.95928 72.7035 -1.72472C79.8473 -1.28879 82.3583 -0.746513 82.3583 0.362925C82.3583 1.61038 79.3536 1.8917 77.6604 0.802628C76.704 0.187948 73.3986 -0.557962 70.3151 -0.854366C64.8872 -1.37628 64.7213 -1.34309 65.1196 0.175127C65.3741 1.14504 65.1166 1.90226 64.4449 2.15869C63.5544 2.49959 63.3992 1.65714 63.5824 -2.50607C63.7929 -7.2983 63.9133 -7.59847 65.6989 -7.79306C66.7401 -7.90619 69.0232 -8.37003 70.7725 -8.82255C73.5387 -9.5398 74.1793 -10.1243 75.6946 -13.3169L77.4362 -16.9876V-17.521C77.2136 -17.8981 77.5226 -17.3996 77.2136 -17.8981C77.2391 -18.2752 77.2391 -17.8981 77.2136 -18.6523C77.1962 -19.1694 77.0046 -18.6023 77.2136 -19.8423C77.4408 -21.1893 76.9418 -21.2918 74.5966 -20.383C73.5993 -19.9961 73.2714 -20.2495 73.2714 -21.4072C73.2714 -24.8268 65.4142 -27.4364 58.5286 -26.3028ZM65.3203 -23.0476C65.0628 -22.6328 63.8702 -22.2934 62.6699 -22.2934C61.4697 -22.2934 60.2771 -22.6328 60.0196 -23.0476C59.7364 -23.5039 60.7836 -23.8018 62.6699 -23.8018C64.5562 -23.8018 65.6035 -23.5039 65.3203 -23.0476ZM56.9906 -22.2934C57.2481 -21.8786 57.0974 -21.5392 56.6567 -21.5392C56.2159 -21.5392 55.8547 -21.8786 55.8547 -22.2934C55.8547 -22.7082 56.0047 -23.0476 56.1887 -23.0476C56.3727 -23.0476 56.7331 -22.7082 56.9906 -22.2934ZM69.4852 -22.2934C69.4852 -21.8786 69.1444 -21.5392 68.7279 -21.5392C68.3114 -21.5392 67.9707 -21.8786 67.9707 -22.2934C67.9707 -22.7082 68.3114 -23.0476 68.7279 -23.0476C69.1444 -23.0476 69.4852 -22.7082 69.4852 -22.2934ZM71.2639 -19.6296C71.0299 -19.0209 70.537 -18.5224 70.1705 -18.5224C69.8032 -18.5224 69.5844 -17.7961 69.6835 -16.9084C69.7828 -16.0207 69.4382 -15.1443 68.9172 -14.9603C67.5034 -14.4602 67.7306 -18.5171 69.208 -20.1424C70.5923 -21.6659 71.9212 -21.3341 71.2639 -19.6296ZM56.4605 -19.88C56.9603 -19.3822 57.3692 -18.1694 57.3692 -17.1852C57.3692 -14.2936 54.7734 -15.3314 54.4818 -18.3399C54.2342 -20.8899 54.915 -21.4193 56.4605 -19.88ZM65.5096 -19.2872C66.0844 -19.2804 66.4562 -18.2403 66.4562 -16.6369V-13.9972H62.2913C58.159 -13.9972 58.1265 -14.0145 58.1265 -16.2839C58.1265 -18.7879 60.2771 -20.2518 63.0486 -19.6341C63.8815 -19.4493 64.9894 -19.2924 65.5096 -19.2872ZM56.0524 -13.8916C57.997 -12.8553 66.8333 -12.9873 68.89 -14.0839C69.6987 -14.5145 70.9307 -14.6307 71.6266 -14.3418C74.0453 -13.338 68.6234 -11.8039 62.5299 -11.7685C56.4598 -11.733 52.4009 -12.7022 53.2036 -13.9957C53.7981 -14.9535 54.0798 -14.9429 56.0524 -13.8916ZM60.3982 -10.0723C60.3982 -9.34974 59.1624 -9.40631 56.612 -10.2442C54.9741 -10.7827 55.102 -10.8536 57.5585 -10.7692C59.1207 -10.7156 60.3982 -10.4019 60.3982 -10.0723ZM65.6989 -10.2261C64.1973 -9.25924 60.9343 -9.25924 61.5341 -10.2261C61.7915 -10.6409 63.0895 -10.9751 64.4184 -10.969C66.257 -10.96 66.563 -10.7827 65.6989 -10.2261ZM54.3402 0.905197C54.3402 1.97617 51.3764 3.32696 50.0989 2.83898C48.9312 2.39249 48.9403 2.27031 50.214 1.34264C51.7118 0.252056 54.3402 -0.026247 54.3402 0.905197ZM74.5882 0.805641C75.5204 1.05453 76.0967 1.55909 75.8687 1.92715C75.2478 2.92798 73.0828 2.6904 71.423 1.43993C69.9675 0.344067 69.9675 0.332756 71.423 0.343315C72.2309 0.348595 73.6553 0.556753 74.5882 0.805641ZM86.8314 7.62442C89.0993 14.8203 88.9577 17.362 86.2097 18.7769C84.9958 19.4021 82.0145 20.1352 79.5838 20.406C77.153 20.6767 74.6534 21.2122 74.0286 21.5968C72.5861 22.4845 80.0268 21.7062 84.2514 20.5274C88.9449 19.2173 89.7998 18.1667 89.3576 14.2554C88.9168 10.3607 88.6685 10.4421 96.9785 11.7462C99.9954 12.2198 102.834 13.1075 103.342 13.735C104 14.5495 105.121 14.7539 107.317 14.4605C111.49 13.9032 111.942 15.1514 107.938 16.1733C106.156 16.6281 103.164 17.5181 101.289 18.1501C92.4418 21.1368 83.3011 23.6966 81.4565 23.7049C80.3357 23.7094 79.2029 24.0608 78.9394 24.4855C78.198 25.6801 84.0871 24.6265 91.8239 22.1799C105.166 17.9616 112.02 16.0481 112.407 16.4335C113.382 17.405 111.371 18.4978 105.245 20.326C101.612 21.4106 97.2761 22.7553 95.6101 23.3142C88.046 25.8536 83.5798 26.742 74.4073 27.5332C64.3101 28.4043 62.1732 28.749 62.8297 29.4029C63.1818 29.7543 74.4595 28.7528 81.2225 27.7693C83.1156 27.494 83.9675 27.5935 83.4942 28.034C82.3174 29.1283 77.1848 30.3834 71.5676 30.949C68.7559 31.2318 66.4562 31.7598 66.4562 32.1226C66.4562 32.4846 67.7344 32.5962 69.2958 32.3692C70.858 32.1422 73.8022 31.8842 75.84 31.7945C79.8329 31.6195 79.8859 31.6768 81.171 37.4774C81.4231 38.6185 82.1425 39.5515 82.7688 39.5515C83.7615 39.5515 83.7706 39.3335 82.8392 37.8545C82.2516 36.9216 81.5534 34.9184 81.2876 33.4047L80.8037 30.6518L86.3202 27.9367C89.3545 26.4434 92.3282 25.2216 92.9272 25.2216C96.3863 25.2216 106.536 29.1789 109.452 31.6647C112.365 34.1476 112.647 34.7019 112.643 37.9133C112.635 43.815 109.272 47.482 99.3888 52.37C93.1044 55.4781 86.0673 57.5702 76.3004 59.2347C68.5454 60.5561 51.599 60.3827 44.2893 58.9067C36.5147 57.3372 28.7249 53.5164 26.5115 50.1873C23.4151 45.5293 24.9485 40.1865 29.7479 38.9157C31.2503 38.5175 32.0825 37.7663 32.2453 36.6599C32.5482 34.5956 37.122 32.1603 41.929 31.5041L45.4252 31.0267L44.8732 34.3467C44.1856 38.4828 43.9955 38.7973 42.1796 38.7973C41.3709 38.7973 40.7098 39.1367 40.7098 39.5515C40.7098 40.4784 40.9007 40.4829 43.2065 39.6096C44.5498 39.1012 45.2791 37.9842 45.9182 35.4561L46.7928 31.9981L56.4348 32.4831C67.1112 33.0193 69.0535 32.4318 58.8837 31.7417C55.3436 31.5018 51.936 31.2514 51.3113 31.1851C50.6865 31.1195 52.9015 30.6194 56.2334 30.0741L62.2913 29.0823L55.0975 29.4127C51.1409 29.5952 45.1776 29.9459 41.8457 30.1933C38.2647 30.4595 34.951 30.3192 33.7424 29.8509C31.083 28.8199 24.8084 20.8524 24.8084 18.5054C24.8077 16.7579 24.8614 16.7398 26.2775 18.0166C27.4535 19.0763 28.4886 19.24 31.4427 18.8357C35.6067 18.2648 36.4261 18.8184 37.275 22.7704C37.7172 24.8316 38.1223 25.205 39.8231 25.119C41.6079 25.0285 41.645 24.978 40.1419 24.6891C38.6698 24.407 38.423 23.8564 38.3245 20.6435C38.2617 18.5989 38.1768 16.5014 38.1352 15.9825C38.0935 15.4644 38.9969 14.9327 40.1419 14.8014L42.2243 14.5624L42.2486 19.7038C42.2682 23.8964 42.4424 24.625 43.1951 23.6543C43.9917 22.6263 45.9083 22.5109 57.2329 22.8096C64.4464 22.9989 70.6483 22.8564 71.0148 22.4913C71.398 22.109 66.1048 21.8141 58.5452 21.796C43.3927 21.7598 42.9876 21.6157 42.9702 16.2676C42.9543 11.6262 42.1986 10.5575 39.3339 11.1277C37.1402 11.5651 37.072 11.5003 37.6619 9.54086C37.9997 8.41709 38.6403 6.57607 39.0855 5.45004C39.8753 3.45215 39.9571 3.42802 42.4697 4.4741C43.9334 5.0835 49.2864 5.76907 54.8711 6.06246C63.5824 6.52026 64.7516 6.43881 65.1749 5.34144C65.6883 4.008 67.9707 3.61355 67.9707 4.85799C67.9707 5.27281 68.843 5.6122 69.9085 5.6122C70.9739 5.6122 71.6592 5.31052 71.4305 4.94246C71.2018 4.57441 72.034 4.12415 73.279 3.94163C74.7389 3.72819 75.5431 3.93786 75.5431 4.53218C75.5431 5.51038 78.6562 5.0307 82.3583 3.48232C83.3995 3.04714 84.4756 2.66929 84.749 2.64289C85.0223 2.61725 85.9598 4.85875 86.8314 7.62442ZM107.142 3.80512C106.891 4.05552 106.237 4.08267 105.691 3.8647C105.087 3.62411 105.267 3.44536 106.149 3.40916C106.947 3.37673 107.394 3.55472 107.142 3.80512ZM107.955 9.57178C107.759 12.9529 107.505 13.5314 106.212 13.5314C104.918 13.5314 104.664 12.9529 104.468 9.57178C104.247 5.75022 104.308 5.6122 106.212 5.6122C108.115 5.6122 108.176 5.75022 107.955 9.57178ZM35.9013 13.7199L35.5924 17.3024L31.6289 17.5566C24.813 17.9932 24.788 15.5232 31.5729 12.0018C33.4743 11.0153 35.2963 10.1917 35.6204 10.1729C35.9452 10.1533 36.0717 11.7499 35.9013 13.7199ZM40.8613 13.3051C40.1548 14.0088 39.7504 14.0088 39.0439 13.3051C38.3374 12.6014 38.5388 12.4001 39.9526 12.4001C41.3664 12.4001 41.5678 12.6014 40.8613 13.3051ZM31.0845 25.7819C32.9375 27.6282 33.8128 27.8809 39.2075 28.1245C42.5325 28.2753 45.2533 28.1079 45.2525 27.7527C45.2525 27.3974 42.6862 27.0724 39.5512 27.0294C34.8291 26.9645 33.5531 26.6734 32.1196 25.3324C29.5768 22.9529 28.6484 23.3564 31.0845 25.7819ZM62.1588 25.5285C57.9213 25.9818 54.1752 26.6334 53.8336 26.9766C53.4929 27.3198 55.4261 27.3846 58.131 27.1199C69.6798 25.9909 77.4574 25.0617 77.752 24.7751C78.2722 24.2675 70.3704 24.6491 62.1588 25.5285ZM47.525 27.3326C47.525 27.6644 48.7177 27.7972 50.1754 27.6275C51.6331 27.4578 52.8258 27.1863 52.8258 27.0249C52.8258 26.8627 51.6331 26.73 50.1754 26.73C48.7177 26.73 47.525 27.0015 47.525 27.3326ZM33.7053 30.9762C35.7415 31.5199 35.918 32.5012 34.0839 33.0811C32.1643 33.6875 31.3276 33.3195 31.2162 31.8209C31.1087 30.3645 31.242 30.3192 33.7053 30.9762ZM99.0177 31.9943C98.393 32.3526 94.8983 33.0661 91.2522 33.5804C87.606 34.0956 84.7611 34.6537 84.9292 34.8211C85.7092 35.5979 99.388 33.4726 100.456 32.4091C101.701 31.1692 100.875 30.9309 99.0177 31.9943ZM103.951 34.4267C104.947 38.3779 101.479 42.8044 95.4208 45.3151C91.6581 46.8741 91.0591 48.1562 94.6636 46.9367C98.2014 45.739 103.233 42.0011 104.225 39.832C105.293 37.497 105.328 33.7622 104.288 33.1219C103.785 32.8126 103.663 33.2848 103.951 34.4267ZM30.8543 36.7232C30.8603 37.4495 30.5249 38.0431 30.1084 38.0431C29.6919 38.0431 29.3564 36.9397 29.3625 35.5919C29.3716 33.732 29.5511 33.4137 30.1084 34.272C30.512 34.8943 30.8475 35.9969 30.8543 36.7232ZM113.721 43.4613C111.665 47.4488 105.469 52.4363 99.4759 54.9313C94.1449 57.1494 94.7688 56.1033 100.332 53.4945C107.403 50.179 112.309 45.383 113.592 40.5289C114.377 37.5558 114.582 37.2828 114.776 38.9474C114.906 40.0545 114.43 42.0856 113.721 43.4613ZM76.5843 42.1263C74.4497 42.6422 70.3605 43.1453 67.4974 43.2448C64.6342 43.3444 62.0452 43.6649 61.7438 43.9568C60.9442 44.7329 71.4101 44.2012 76.5116 43.2064C78.9189 42.7365 81.0687 42.0622 81.2891 41.7062C81.779 40.9174 81.4731 40.9445 76.5843 42.1263ZM87.4069 41.563C87.129 41.839 86.9018 44.2147 86.9018 46.8424C86.9018 51.4823 86.9578 51.6188 88.8691 51.6188C90.8357 51.6188 90.8364 51.6158 90.2973 46.905C90.0012 44.3128 89.6067 41.9363 89.4212 41.6255C89.0039 40.9249 88.0763 40.8962 87.4069 41.563ZM44.4961 42.4318C44.4961 42.8278 46.0605 43.3851 47.9733 43.6702C52.0185 44.2751 53.3717 43.7064 49.662 42.9613C48.2785 42.6829 46.5505 42.2885 45.8212 42.0841C45.092 41.8797 44.4961 42.0358 44.4961 42.4318ZM54.5296 43.8422C55.2588 44.0322 56.4507 44.0322 57.1799 43.8422C57.9091 43.6529 57.3124 43.4975 55.8547 43.4975C54.397 43.4975 53.8003 43.6529 54.5296 43.8422ZM89.4378 48.9549C89.6726 49.5636 89.5385 50.2627 89.1402 50.5078C88.7419 50.753 88.4163 50.2544 88.4163 49.4007C88.4163 47.5792 88.8373 47.396 89.4378 48.9549ZM110.004 50.8548C109.033 52.419 102.968 56.0045 97.8819 58.0205C89.6968 61.2651 83.5245 62.8293 74.0339 64.0639C69.2413 64.6869 64.0428 65.3702 62.4806 65.5814C60.9192 65.7933 59.641 65.65 59.641 65.2631C59.641 64.877 61.9407 64.3339 64.7524 64.0571C71.9621 63.3482 86.4172 60.8208 88.9433 59.8291C90.866 59.0734 90.9273 58.9429 89.5908 58.4496C88.3126 57.9775 88.4542 57.7867 90.6502 57.0242C94.0881 55.831 95.2709 55.9592 92.9598 57.2753C91.1553 58.3026 91.1431 58.3546 92.7 58.3802C94.706 58.4127 103.264 54.6492 107.126 52.0359C110.245 49.9241 110.696 49.7393 110.004 50.8548ZM33.2744 56.7353C40.547 60.139 46.2574 60.977 62.4178 61.0124C70.8164 61.0313 77.6225 61.112 77.5415 61.1927C77.4037 61.3307 67.4838 62.6423 60.7768 63.4093C59.1109 63.6001 55.7442 64.0677 53.2952 64.4493C50.4866 64.886 48.3376 64.8732 47.4758 64.4139C46.7246 64.0134 44.9792 63.6861 43.5972 63.6861C40.5395 63.6861 31.1466 61.0863 29.6079 59.814C28.366 58.7883 26.8106 55.9675 25.9405 53.1657L25.3673 51.3194L27.686 53.2622C28.9604 54.3309 31.476 55.8936 33.2744 56.7353ZM105.984 58.9723C107.739 60.8405 110.376 65.2337 110.376 66.2881C110.376 66.5166 109.356 66.7029 108.111 66.7029C106.508 66.7029 105.233 66.0015 103.757 64.3068C102.608 62.9884 101.079 61.299 100.359 60.5516C99.1132 59.2581 99.1495 59.1382 101.116 58.0755C103.841 56.6026 103.74 56.5845 105.984 58.9723ZM84.2514 59.915C83.002 60.2318 81.1278 60.5071 80.0866 60.5267C78.3692 60.5599 78.3336 60.5033 79.708 59.915C80.5409 59.5583 82.4151 59.283 83.8728 59.3034L86.5232 59.3396L84.2514 59.915ZM100.952 63.0759C103.587 65.9811 103.707 66.3017 102.444 67.0355C101.688 67.4752 99.3403 68.964 97.2276 70.3457L93.3853 72.8565L88.0612 71.8368L82.737 70.8171V67.5167V64.2163L89.1735 62.1188C92.7137 60.9657 96.1667 59.9973 96.8475 59.9686C97.5275 59.9392 99.3744 61.3375 100.952 63.0759ZM35.2039 64.1416C34.9525 64.392 34.299 64.4192 33.753 64.2012C33.1487 63.9606 33.3282 63.7819 34.2104 63.7457C35.0085 63.7132 35.4553 63.8912 35.2039 64.1416ZM49.4181 66.7663C45.6251 67.3221 40.9567 66.9525 40.3925 66.052C40.2275 65.7873 43.0421 65.7157 46.6481 65.8914C52.9098 66.1968 53.0348 66.236 49.4181 66.7663ZM57.164 65.65C56.9126 65.9004 56.2591 65.9276 55.7131 65.7096C55.1089 65.469 55.2883 65.2903 56.1705 65.2541C56.9687 65.2216 57.4154 65.3996 57.164 65.65ZM75.9793 65.8559C75.1516 67.1901 68.6242 68.2091 61.3879 68.1344C55.9903 68.0778 54.653 67.8938 56.4916 67.4609C57.8826 67.1336 60.4383 66.9827 62.1709 67.1268C63.9027 67.2708 67.3649 66.9292 69.8638 66.3688C75.5053 65.1025 76.498 65.0195 75.9793 65.8559ZM80.1487 66.5868C78.6221 69.4278 68.7635 71.9182 60.6648 71.5087C55.5443 71.25 49.2266 69.8766 48.614 68.8901C48.0604 67.9971 49.662 68.0326 57.1678 69.0771C64.3843 70.0817 72.3551 69.1299 76.941 66.7172C80.444 64.8739 81.0831 64.8483 80.1487 66.5868ZM110.462 68.6329C111.718 69.2793 112.612 70.2122 112.45 70.707C112.287 71.201 109.49 73.9041 106.233 76.7142C97.4889 84.2578 87.1911 88.685 72.5141 91.2101C65.5013 92.4168 64.0178 92.8112 57.7479 95.1395C54.2759 96.4292 44.5566 99.0893 43.2216 99.1157C42.7294 99.1255 42.1297 98.5153 41.8889 97.7596C41.6473 97.0039 40.0162 95.5822 38.2624 94.601L35.0737 92.8158L37.7028 91.729C41.879 90.0018 49.6741 89.6971 53.1097 91.1264C56.6309 92.5918 59.3668 92.7999 56.9906 91.4212C52.3472 88.728 41.2119 88.5945 36.0285 91.1701C33.8848 92.235 33.5054 92.1717 29.2822 90.0486C26.8212 88.8117 24.8077 87.4979 24.8077 87.1306C24.8077 86.7625 26.0594 86.1674 27.589 85.8069C29.1187 85.4464 30.4885 84.8001 30.6324 84.3702C30.9459 83.4319 25.5642 80.2914 23.5688 80.2484C22.5261 80.2258 22.7517 79.9 24.429 79.0025C25.6785 78.3335 28.0638 76.6871 29.7298 75.3431C32.892 72.7931 38.6744 70.4739 41.8722 70.4739C43.4412 70.4739 43.7388 70.8344 43.7388 72.7365C43.7388 74.1454 43.3488 74.9992 42.7052 74.9992C42.1365 74.9992 40.7734 75.7028 39.6762 76.5626C37.1667 78.5281 37.041 81.6799 39.3846 83.8724C45.747 89.8238 72.0606 87.0808 88.4413 78.7574C90.0641 77.933 93.4308 75.4464 95.9221 73.2321C102.067 67.7709 106.231 66.454 110.462 68.6329ZM78.9863 70.7243C71.2094 76.4186 51.646 76.2587 46.3748 70.4581C45.0663 69.0176 45.7175 68.3184 47.1843 69.5885C49.2031 71.3375 55.2717 72.3564 63.4272 72.3172C71.117 72.2803 72.6224 72.051 76.3004 70.3517C81.0551 68.1555 82.2644 68.3229 78.9863 70.7243ZM48.8449 73.4779C53.2998 75.7911 58.7073 76.5114 66.5788 75.8416C71.379 75.4336 74.6738 74.7171 76.838 73.6114C78.5918 72.7154 80.2517 71.9823 80.5281 71.9823C81.676 71.9823 78.8311 74.4705 75.9725 75.9676C73.4001 77.3138 71.3556 77.6147 63.5597 77.7943C55.4095 77.982 53.7511 77.8056 50.4677 76.3982C48.3997 75.5128 46.368 74.1567 45.9538 73.3852C45.0072 71.6241 45.2904 71.6331 48.8449 73.4779ZM90.5442 73.5978C91.5066 73.9523 92.0814 74.5844 91.8216 75.0029C90.9379 76.4269 86.8079 78.1072 84.7694 77.8727C83.0285 77.6721 82.7036 77.2429 82.506 74.877L82.275 72.1151L85.535 72.5344C87.3281 72.7645 89.5825 73.2434 90.5442 73.5978ZM110.668 76.6961C103.244 91.1173 90.5972 99.7311 68.8809 105.157C65.4248 106.02 60.8972 107.394 58.8193 108.21C56.7415 109.025 54.7325 109.693 54.3554 109.693C53.9783 109.693 53.5656 108.253 53.4369 106.494C53.1862 103.044 52.1412 102.344 48.5746 103.236C45.092 104.107 44.4802 111.201 47.8878 111.201C49.6461 111.201 49.2591 112.476 47.3486 112.974C44.9799 113.591 44.6195 112.976 44.1008 107.423C43.8486 104.731 43.4707 101.934 43.261 101.208C42.9944 100.285 43.3064 99.888 44.3007 99.888C46.7625 99.888 58.3855 96.7475 61.2297 95.3137C63.615 94.1115 75.4485 91.5412 79.708 91.3006C80.5409 91.2531 81.3928 91.0359 81.6011 90.8171C81.8093 90.5984 84.0243 89.799 86.5232 89.0402C93.1014 87.0446 100.413 83.0352 105.934 78.3961C108.586 76.1689 111.019 74.3234 111.343 74.2955C111.665 74.2676 111.362 75.3484 110.668 76.6961ZM80.8438 75.7217C80.8438 77.439 74.1945 80.2198 67.9707 81.1052C62.4996 81.8828 60.6526 81.8406 55.6601 80.8201C50.0997 79.6835 43.916 76.5747 45.9045 75.914C46.4073 75.7473 47.2335 75.9412 47.7401 76.3454C49.5136 77.7596 57.264 79.5244 61.7007 79.5244C67.5928 79.5244 74.4815 78.2174 77.7974 76.4714C80.9938 74.7872 80.8438 74.8242 80.8438 75.7217ZM43.7388 78.7438C43.7388 81.0404 43.3579 81.9371 42.0948 82.6099C40.7325 83.3362 40.279 83.2517 39.4445 82.1151C38.0466 80.2107 38.1564 79.7122 40.4418 77.6027C43.183 75.0723 43.7388 75.2646 43.7388 78.7438ZM79.112 80.5848C71.9258 86.3055 50.8766 85.859 46.0105 79.8827C44.9655 78.599 44.9951 78.5371 46.3892 79.1028C55.224 82.689 55.3103 82.7049 63.8058 82.3851C70.7036 82.1249 72.8519 81.741 76.3004 80.1534C81.0589 77.9632 82.1887 78.1367 79.112 80.5848ZM25.9678 82.1257C28.7961 83.303 29.3087 84.3694 27.3959 85.1003C25.0916 85.9812 21.9317 85.546 20.1589 84.1039L18.3711 82.6491L20.2642 81.8888C22.8108 80.8661 22.9547 80.8714 25.9678 82.1257ZM49.3553 83.6009C51.2386 84.5979 52.3638 85.5716 51.8565 85.7639C50.5109 86.2738 48.1164 85.2171 46.4611 83.3844C44.6074 81.3322 45.1473 81.3722 49.3553 83.6009ZM18.2227 85.4525C20.3869 86.6396 26.0079 89.5621 30.7142 91.9469C35.4591 94.3521 39.7981 97.0861 40.4546 98.0847C41.5549 99.7567 41.5292 99.9785 40.0912 101.206C35.5371 105.096 34.0665 109.46 35.138 115.915C35.9339 120.712 36.86 119.037 36.4041 113.622C35.9922 108.723 36.0823 108.347 38.4873 104.949C39.87 102.995 41.2376 101.396 41.5254 101.396C41.8139 101.396 42.2667 103.348 42.5325 105.733C42.7976 108.118 43.2042 111.639 43.4344 113.557L43.8547 117.045L40.5781 118.557C38.7766 119.389 36.7116 120.267 35.9899 120.509C35.1441 120.792 34.848 121.39 35.1562 122.191C35.5939 123.327 35.6931 123.33 36.3171 122.219C37.019 120.97 39.9526 120.505 39.9526 121.643C39.9526 122.78 37.0932 124.896 34.1339 125.947C30.5014 127.237 24.1913 127.309 22.0165 126.085C19.2646 124.536 12.4585 119.705 10.0414 117.586L7.76964 115.594L10.42 117.153C17.189 121.135 17.6532 121.105 17.3564 116.712C17.1951 114.327 17.32 114.103 18.3393 114.946C19.3139 115.752 19.507 115.698 19.507 114.617C19.507 113.905 18.8254 113.145 17.9925 112.928C17.1595 112.711 16.478 111.936 16.478 111.206C16.478 109.902 15.333 108.64 12.7395 107.082C12.0216 106.652 10.3276 105.574 8.97518 104.688C7.62274 103.802 5.90152 103.237 5.14958 103.433C3.10956 103.964 1.33306 100.887 1.33306 96.8251C1.33306 92.9183 3.18982 89.9898 8.35651 85.7466C12.0125 82.7441 13.2173 82.7087 18.2227 85.4525ZM109.221 85.5203C113.137 93.0632 105.276 105.326 92.307 111.905C86.6065 114.797 80.4985 116.353 71.2427 117.272C61.1835 118.27 45.9674 117.502 45.4585 115.97C45.2965 115.482 46.6451 114.429 48.4564 113.632C51.1901 112.427 53.5663 112.178 62.4602 112.161C77.4423 112.134 85.3691 110.11 95.0089 103.853C99.4221 100.988 103.454 95.2436 104.097 90.9061C104.416 88.7506 107.127 83.3241 107.896 83.3007C107.99 83.2977 108.586 84.297 109.221 85.5203ZM102.804 91.8248C102.804 92.7826 102.374 94.1515 101.848 94.8672C101.011 96.0083 100.712 96.0377 99.4289 95.1025C98.0098 94.0693 98.0333 93.975 100.195 92.0834C102.924 89.6941 102.804 89.7062 102.804 91.8248ZM98.6838 96.4503C100.134 97.5235 100.132 97.5597 98.5763 99.1315C97.1746 100.548 96.7536 100.62 94.79 99.7764C91.6513 98.4293 91.6505 98.4263 93.7284 96.8364C96.0031 95.0957 96.7725 95.0362 98.6838 96.4503ZM92.6978 100.265C96.1349 101.695 95.4731 102.657 88.6874 106.09C83.317 108.807 82.3508 108.507 82.9687 104.315C83.242 102.46 83.9425 101.704 86.4316 100.578C90.2019 98.8728 89.4439 98.9113 92.6978 100.265ZM108.584 104.838C110.402 107.602 110.022 113.477 107.734 117.974C106.658 120.089 103.663 123.619 100.591 126.392C95.8812 130.644 94.7802 131.267 90.5343 132.084C87.912 132.59 80.9953 133.178 75.1645 133.392L64.5631 133.781L70.7611 132.753C77.5922 131.618 79.8556 130.961 77.2469 130.87C75.6264 130.813 75.5431 130.514 75.5431 124.758C75.5431 118.852 75.5939 118.687 77.6255 117.906C81.932 116.253 87.0828 116.251 91.78 117.903C97.5085 119.917 98.1477 120.555 96.384 122.495C94.6848 124.366 87.6045 127.952 82.8498 129.35C78.7728 130.549 78.07 131.688 81.9449 130.818C95.4254 127.79 108.091 114.45 104.258 107.318C103.617 106.124 103.724 105.484 104.754 104.351C106.481 102.45 107.062 102.524 108.584 104.838ZM4.24012 106.334C4.724 107.391 5.11928 109.1 5.11928 110.132C5.11928 111.164 5.70009 112.891 6.40963 113.97C7.68938 115.916 7.6871 115.923 6.04918 114.904C4.91786 114.201 4.12805 112.568 3.53891 109.711C3.06639 107.419 2.52648 105.29 2.34019 104.979C2.15391 104.668 2.30687 104.413 2.68095 104.413C3.05579 104.413 3.757 105.278 4.24012 106.334ZM10.2474 106.864C12.1761 108.212 14.0714 109.533 14.4592 109.799C15.1982 110.306 16.662 118.057 16.1205 118.596C15.9479 118.768 14.2373 117.853 12.3184 116.563C10.3996 115.273 8.52614 114.218 8.15508 114.218C7.78403 114.218 7.32362 113.963 7.1328 113.652C6.50201 112.626 5.69101 104.413 6.22108 104.413C6.5058 104.413 8.31789 105.517 10.2474 106.864ZM80.8438 105.136C80.8438 107.984 66.4176 111.812 60.402 110.56C56.7218 109.794 58.2151 109.219 65.4619 108.61C70.8058 108.161 78.635 106.11 79.9298 104.82C80.5356 104.217 80.8438 104.323 80.8438 105.136ZM75.3379 105.623C75.0865 105.873 74.433 105.9 73.887 105.683C73.2827 105.442 73.4622 105.263 74.3444 105.227C75.1425 105.195 75.5893 105.373 75.3379 105.623ZM50.554 107.008C50.554 107.192 50.2133 107.551 49.7968 107.807C49.3803 108.064 49.0395 107.913 49.0395 107.475C49.0395 107.036 49.3803 106.676 49.7968 106.676C50.2133 106.676 50.554 106.825 50.554 107.008ZM48.1361 109.335C47.9029 109.567 47.4796 109.149 47.1949 108.405C46.7845 107.33 46.8708 107.244 47.6189 107.983C48.1369 108.495 48.3694 109.104 48.1361 109.335ZM80.4963 108.888C80.2221 109.331 79.6345 109.693 79.1923 109.693C78.6895 109.693 78.747 109.26 79.3445 108.543C80.3834 107.297 81.3111 107.575 80.4963 108.888ZM103.418 110.7C103.713 114.183 102.208 114.934 98.4763 113.161C95.5586 111.775 95.5518 111.81 99.1715 109.264C102.364 107.02 103.128 107.278 103.418 110.7ZM97.7857 114.253C101.561 115.916 101.79 116.272 100.343 118.221C99.4668 119.402 98.9784 119.334 93.7466 117.302L88.096 115.106L90.7176 113.97C94.1282 112.49 93.7488 112.475 97.7857 114.253ZM45.6615 118.791C45.9348 119.232 45.6145 120.192 44.9489 120.924C43.417 122.61 43.3875 125.81 44.8929 127.054C47.1919 128.954 45.2276 128.707 42.6862 126.776C40.201 124.888 40.1192 124.679 40.9612 122.335C42.2198 118.833 44.5824 117.051 45.6615 118.791ZM52.4138 119.686C53.056 121.718 53.321 128.503 52.7917 129.357C52.382 130.018 51.3484 129.775 48.932 128.451C45.0155 126.305 44.337 123.878 46.7867 120.776C48.4686 118.647 51.8769 117.986 52.4138 119.686ZM64.9417 119.497C65.7845 120.04 65.3347 120.231 63.1932 120.24C61.4606 120.247 60.4959 119.951 60.7768 119.497C61.3682 118.544 63.4605 118.544 64.9417 119.497ZM112.524 120.529C112.692 121.409 112.48 121.746 111.958 121.424C111.499 121.141 110.189 121.555 109.046 122.343C104.377 125.563 104.288 125.469 107.553 120.776C109.225 118.371 112.083 118.23 112.524 120.529ZM67.5867 121.062C74.3618 119.887 74.0286 119.68 74.0286 125.062C74.0286 131.656 73.6333 131.898 63.7778 131.342C59.4161 131.096 55.5079 130.686 55.0937 130.431C54.3251 129.958 54.0146 121.582 54.7386 120.861C54.9574 120.643 56.8861 120.781 59.0253 121.169C61.5788 121.631 64.5184 121.594 67.5867 121.062ZM10.5707 126.618C10.445 127.751 10.7426 129.157 11.231 129.744C12.6236 131.415 18.4922 131.096 21.1585 129.205C23.2697 127.708 23.5075 127.683 24.6827 128.854C25.5967 129.764 25.97 131.569 26.0412 135.422C26.095 138.343 26.5304 141.124 27.0082 141.6C28.2138 142.801 33.3191 142.685 35.7256 141.402C38.1276 140.122 38.8099 137.917 37.7013 135.013C36.5987 132.123 37.2878 131.688 39.577 133.83C42.032 136.128 41.9706 138.356 39.3846 140.76C36.6033 143.345 32.2514 144.638 27.7738 144.21C22.9236 143.746 21.7787 142.69 21.7787 138.68C21.7787 134.768 19.8417 133.008 15.7412 133.194C13.2142 133.308 13.193 133.33 15.3421 133.609C16.5916 133.77 18.365 134.479 19.2821 135.185C20.6943 136.27 20.8829 136.959 20.508 139.672C20.2642 141.436 19.7432 142.878 19.3494 142.878C18.6687 142.878 11.9587 137.935 8.33758 134.765C6.24758 132.935 6.11582 131.99 8.09829 133.047C8.904 133.476 10.1822 133.81 10.938 133.788C11.696 133.767 11.0379 133.222 9.47345 132.577C7.06616 131.582 6.63378 131.052 6.63378 129.092C6.63378 126.646 8.62003 123.791 9.9861 124.272C10.4329 124.429 10.6956 125.485 10.5707 126.618ZM108.862 124.696C108.862 125.066 108.302 125.583 107.619 125.845C106.58 126.242 106.533 126.131 107.333 125.171C108.423 123.863 108.862 123.726 108.862 124.696ZM114.604 126.731C115.793 133.041 113.006 140.898 107.482 146.806C104.031 150.498 95.8509 155.276 87.2804 158.606C83.9887 159.885 72.6421 161.561 69.1065 161.29C58.8171 160.504 50.554 158.658 50.554 157.147C50.554 156.15 52.6516 156.303 56.9906 157.614C64.9016 160.004 77.3484 159.751 85.0087 157.043C104.05 150.312 112.648 141.652 112.648 129.206C112.648 123.669 113.762 122.26 114.604 126.731ZM42.1372 128.113C47.7583 131.88 53.1241 133.619 61.026 134.235C64.8743 134.535 67.876 134.927 67.6958 135.107C67.5148 135.287 65.2976 135.915 62.7676 136.502C60.2377 137.09 56.54 138.315 54.55 139.224C50.3087 141.161 50.1784 141.247 50.6994 141.765C50.9183 141.983 52.7637 141.436 54.8007 140.55C58.9905 138.728 68.9256 136.112 71.7084 136.099C72.7224 136.094 74.3414 136.827 75.3054 137.73C76.701 139.036 77.0576 139.129 77.0576 138.187C77.0576 137.537 76.5465 136.81 75.9217 136.571C73.4895 135.642 74.9888 134.704 79.2975 134.46C84.1522 134.185 84.1326 134.161 82.7377 138.813C82.5999 139.274 80.3282 139.877 77.6899 140.153C72.2802 140.718 66.7674 141.83 62.2913 143.259C56.9815 144.953 53.4815 144.308 48.2921 140.683C45.7258 138.89 43.2527 136.606 42.7953 135.606C42.3379 134.608 40.8295 133.092 39.443 132.238C36.9539 130.706 35.5553 127.88 36.5185 126.328C37.278 125.104 37.9822 125.327 42.1372 128.113ZM103.985 127.441C103.176 128.049 102.154 128.536 101.713 128.521C101.271 128.506 101.763 128.009 102.804 127.416C105.257 126.02 105.854 126.032 103.985 127.441ZM106.961 129.31C105.231 131.109 104.17 131.557 101.716 131.528L98.6391 131.491L103.561 128.963C106.268 127.573 108.629 126.575 108.807 126.745C108.985 126.916 108.154 128.07 106.961 129.31ZM111.555 131.777C111.278 133.861 110.439 136.756 109.69 138.209L108.328 140.852L107.8 137.151C107.007 131.6 107.12 130.771 108.932 128.85C111.285 126.356 112.149 127.32 111.555 131.777ZM55.6495 132.02C55.3981 132.271 54.7446 132.298 54.1986 132.08C53.5944 131.839 53.7738 131.66 54.656 131.624C55.4542 131.592 55.9009 131.77 55.6495 132.02ZM97.0451 132.901C96.1682 133.618 95.2398 134.803 94.9824 135.536C94.4319 137.098 92.254 138.026 87.4561 138.742C84.6066 139.169 84.0137 139.058 84.1507 138.128C84.3984 136.45 86.1574 134.59 87.5621 134.521C88.2406 134.488 90.4987 133.851 92.5811 133.107C97.6562 131.292 99.0942 131.226 97.0451 132.901ZM59.8447 132.814C59.332 133.02 58.3097 133.033 57.5729 132.841C56.8361 132.65 57.2556 132.481 58.5051 132.466C59.7546 132.451 60.3573 132.607 59.8447 132.814ZM103.853 133.171C104.886 133.639 106.145 135.019 106.651 136.235C107.968 139.402 105.685 142.405 101.708 142.739C98.1575 143.038 96.3606 141.534 96.1258 138.069C95.9888 136.039 96.3886 135.132 97.9652 133.897C100.266 132.094 101.221 131.976 103.853 133.171ZM15.1588 142.428C20.6186 146.719 21.9233 148.155 22.5821 150.592C23.0221 152.218 23.2743 153.871 23.1425 154.265C22.885 155.033 10.5472 145.591 9.28414 143.659C8.43299 142.357 7.42282 136.695 8.09904 137.015C8.33833 137.128 11.5157 139.564 15.1588 142.428ZM94.8839 139.157C95.1588 139.599 95.2058 140.138 94.9884 140.354C94.3539 140.986 89.3916 141.983 80.4652 143.273C74.7276 144.102 70.6778 145.167 67.4504 146.694C62.1058 149.224 60.686 149.367 56.8323 147.763C52.8553 146.108 54.5 144.785 59.0329 145.993C62.0907 146.807 62.6874 146.746 64.6448 145.42C68.2327 142.989 70.3439 142.337 77.8565 141.346C81.7904 140.827 86.8829 139.979 89.1735 139.461C91.4642 138.943 93.5739 138.482 93.8616 138.436C94.1494 138.39 94.6098 138.715 94.8839 139.157ZM46.5459 141.656C46.421 142.028 44.833 142.911 43.0164 143.618C41.1998 144.326 40.0851 145.133 40.5387 145.412C40.9923 145.691 42.5484 145.357 43.9963 144.669C47.84 142.843 48.6745 143.54 49.6476 149.388C50.3655 153.7 50.3215 154.809 49.3757 156.247C48.7548 157.19 47.8295 157.963 47.3183 157.966C46.8072 157.968 45.4123 158.748 44.2189 159.7L42.0479 161.429L43.3299 169.568C44.0341 174.045 44.4317 177.887 44.2121 178.106C43.7858 178.531 43.3413 176.769 42.6507 171.915C39.7428 151.478 38.5593 144.768 37.9686 145.357C37.5794 145.744 39.867 162.868 41.7457 173.633C42.8347 179.87 42.687 180.155 37.9663 180.93C33.8545 181.605 29.8343 179.936 28.2577 176.898C27.6012 175.634 26.354 174.22 25.4854 173.758C24.4858 173.225 24.0398 172.413 24.2685 171.542C24.4669 170.786 24.3798 168.807 24.0747 167.144C23.5393 164.229 23.59 164.124 25.4884 164.246C27.2998 164.363 27.4512 164.143 27.3687 161.512C27.3195 159.923 26.7606 158.246 26.1116 157.741C25.4324 157.211 24.7668 155.094 24.5214 152.682L24.0989 148.534L25.1848 152.305L26.2707 156.076L25.942 152.022C25.7618 149.791 25.0674 147.136 24.3995 146.121C23.2114 144.315 23.2212 144.295 24.8645 145.171C27.3179 146.478 33.3024 145.661 37.6248 143.427C40.1578 142.118 41.2391 141.838 40.9605 142.561C40.7333 143.15 40.8916 143.632 41.3118 143.632C41.7321 143.632 42.4363 142.602 42.8771 141.344C43.601 139.275 43.8259 139.148 45.2245 140.019C46.0757 140.547 46.6701 141.285 46.5459 141.656ZM96.3674 143.606C96.3674 145.955 77.0493 153.545 74.5966 152.16C73.6553 151.628 73.959 148.133 74.9752 147.798C75.4962 147.627 77.1243 147.346 78.5948 147.173C80.0646 147.001 82.4212 146.265 83.8319 145.539C89.9656 142.379 96.3674 141.392 96.3674 143.606ZM63.8058 144.386C63.5484 144.801 62.9319 145.135 62.436 145.129C61.8938 145.121 61.9877 144.825 62.6699 144.386C64.1246 143.449 64.3866 143.449 63.8058 144.386ZM102.756 146.641C98.5679 150.22 87.7575 155.363 81.38 156.812C71.1518 159.136 51.3113 157.067 51.3113 153.676C51.3113 152.853 51.6922 152.691 52.6364 153.113C53.3657 153.439 54.9839 153.651 56.2334 153.584C57.4828 153.517 62.1293 153.478 66.5584 153.498C70.9883 153.518 76.7638 153.145 79.393 152.671C84.3431 151.777 92.1813 148.595 95.8608 145.985C97.6289 144.732 103.902 143.519 105.028 144.213C105.21 144.326 104.188 145.418 102.756 146.641ZM52.0768 145.329C52.0814 145.848 52.3086 147.629 52.5812 149.288C53.0219 151.966 52.9439 152.196 51.8928 151.334C50.3791 150.092 49.7294 144.386 51.1023 144.386C51.6339 144.386 52.0723 144.811 52.0768 145.329ZM17.4011 151.884C21.3751 155.086 22.0649 156.014 22.3072 158.483L22.5897 161.356L19.8848 157.385C18.3968 155.201 16.0039 152.656 14.5667 151.728C13.1294 150.801 11.9489 149.619 11.9436 149.1C11.9292 147.631 12.4593 147.901 17.4011 151.884ZM56.4984 148.985C59.1548 149.908 59.092 151.264 56.4219 150.623C55.2558 150.344 54.9574 150.461 55.4761 150.998C55.8926 151.429 56.9149 151.945 57.7479 152.145C58.7285 152.379 58.3945 152.538 56.8013 152.595C55.1407 152.654 54.3402 152.335 54.3402 151.613C54.3402 151.025 54.1335 150.006 53.8806 149.35C53.3339 147.932 53.4278 147.919 56.4984 148.985ZM73.132 150.231C72.9253 152.02 72.5126 152.337 70.1288 152.535C68.6083 152.661 66.2229 152.463 64.8281 152.093L62.2913 151.423L64.9417 149.793C66.441 148.871 68.8468 148.162 70.4817 148.16C73.1888 148.157 73.3569 148.289 73.132 150.231ZM18.0765 156.952C20.8359 160.635 23.2932 166.637 23.2932 169.694C23.2932 171.164 21.3175 173.73 20.7746 172.965C20.6587 172.802 19.984 170.768 19.2752 168.444C17.7471 163.437 12.7394 155.427 10.3352 154.146C8.71696 153.283 8.7003 153.188 10.005 152.238C11.9648 150.811 14.6515 152.38 18.0765 156.952ZM11.0409 156.332C12.3654 157.51 13.449 158.893 13.449 159.407C13.449 159.921 12.5668 159.296 11.4885 158.02C10.4102 156.744 8.87674 155.699 8.08088 155.699C7.28501 155.699 6.63378 155.36 6.63378 154.945C6.63378 153.551 8.61397 154.174 11.0409 156.332ZM10.2087 159.659C12.9992 162.681 14.9574 166.577 14.9605 169.113C14.9635 171.344 14.8151 171.512 13.4725 170.796C11.4953 169.742 8.38983 164.321 7.74162 160.79C7.14643 157.547 7.92715 157.189 10.2087 159.659ZM53.3642 160.356C54.7908 161.536 54.3698 177.615 52.8189 181.14C51.9057 183.216 51.8996 184.11 52.778 187.174C53.3445 189.151 53.9624 191.958 54.1502 193.41L54.4917 196.049L52.5229 193.452C51.44 192.023 50.554 190.611 50.554 190.314C50.554 188.799 46.3278 183.605 45.095 183.605C42.4023 183.605 42.6832 181.381 45.7054 178.779C48.985 175.956 49.2084 174.519 47.996 164.072L47.3486 158.492L49.8255 158.986C51.1878 159.257 52.7803 159.874 53.3642 160.356ZM46.2544 161.279C47.0207 163.267 47.7121 172.956 47.2252 174.886C46.5459 177.584 45.2533 177.3 45.2533 174.453C45.2533 173.152 44.861 169.967 44.3817 167.375C43.52 162.718 43.7873 160.224 45.1488 160.224C45.5335 160.224 46.031 160.699 46.2544 161.279ZM16.8839 164.938C18.7967 169.031 19.3169 173.362 17.9925 174.177C17.5336 174.46 17.2284 173.364 17.2186 171.393C17.2095 169.606 16.5279 166.664 15.7041 164.856C14.0836 161.299 13.9942 160.979 14.6197 160.979C14.8469 160.979 15.8661 162.761 16.8839 164.938ZM66.3956 162.394C70.378 162.688 72.8867 163.21 73.0775 163.786C73.2456 164.293 71.9152 166.057 70.1205 167.708L66.8575 170.709L70.0645 171.219L73.2714 171.731L73.2608 177.102C73.2471 184.212 72.8004 185.568 69.8774 187.368C65.6626 189.962 58.8761 189.037 56.434 185.534C56.1281 185.095 55.8729 179.354 55.8661 172.776L55.8547 160.815L57.9372 161.369C59.0821 161.673 62.8888 162.134 66.3956 162.394ZM76.2474 184.126C76.2761 185.45 75.9596 186.742 75.5431 186.999C75.1266 187.255 74.7859 188.361 74.7859 189.457C74.7859 191.006 74.5837 191.247 73.8772 190.544C72.6012 189.273 70.8989 189.411 66.9196 191.111C65.0235 191.92 63.2947 192.297 63.0781 191.949C62.8615 191.599 61.7438 191.081 60.5943 190.795C55.4829 189.524 51.6028 184.14 53.4414 180.867C54.0207 179.835 54.2713 180.211 54.7037 182.762C55.5859 187.964 60.2339 190.803 66.2971 189.844C71.4237 189.033 74.72 185.548 74.8389 180.814C74.8858 178.954 74.9699 178.883 75.5431 180.211C75.9013 181.041 76.2178 182.802 76.2474 184.126ZM33.0056 181.999C34.5595 182.98 35.0418 188.377 33.6773 189.505C32.7269 190.29 32.4104 190.055 31.7054 188.042C30.7475 185.306 30.5862 181.336 31.4336 181.354C31.7456 181.36 32.4536 181.651 33.0056 181.999ZM108.52 188.019C108.484 190.88 108.457 190.907 106.803 189.716C104.766 188.25 104.628 186.957 106.401 185.928C108.421 184.756 108.56 184.893 108.52 188.019ZM78.4154 190.026C79.5346 194.195 79.552 194.918 78.5335 194.918C77.3461 194.918 75.559 190.118 76.0497 188.249C76.704 185.757 77.4112 186.288 78.4154 190.026ZM63.3219 194.439C64.1057 195.739 64.9765 197.77 65.2559 198.951C66.0238 202.192 64.1451 201.161 62.1353 197.239C61.2168 195.446 59.9264 193.386 59.2684 192.662C58.1568 191.439 58.2075 191.372 59.9848 191.71C61.0737 191.917 62.5094 193.091 63.3219 194.439ZM71.2427 195.882C71.0019 198.048 70.593 200.051 70.334 200.332C69.498 201.243 66.4562 198.125 66.0102 195.901C65.6315 194.016 65.8973 193.588 68.0986 192.535C69.4859 191.871 70.8596 191.467 71.1511 191.636C71.4419 191.805 71.4835 193.716 71.2427 195.882ZM58.7974 193.848C59.6432 194.92 60.5595 196.532 60.8329 197.431C61.1062 198.331 62.0074 199.804 62.8365 200.707C64.7478 202.789 64.0194 203.998 61.0002 203.754C57.841 203.499 55.7396 200.553 55.2739 195.728C54.9733 192.612 55.1232 191.901 56.0819 191.901C56.7294 191.901 57.9516 192.778 58.7974 193.848ZM74.2361 197.227C73.4917 200.06 72.5141 199.516 72.5384 196.282C72.5596 193.377 72.6716 193.176 73.594 194.387C74.1611 195.133 74.4504 196.411 74.2361 197.227ZM82.4151 198.142C82.3212 199.044 81.283 198.869 80.9574 197.897C80.7908 197.399 81.0634 197.128 81.5632 197.294C82.063 197.46 82.4462 197.841 82.4151 198.142ZM152.025 204.056C148.901 205.647 146.686 206.959 147.103 206.969C148.428 207.003 158.84 202.213 158.84 201.569C158.84 200.664 158.273 200.871 152.025 204.056ZM133.851 205.892L131.958 207.008L134.171 206.808C135.388 206.698 136.524 206.184 136.695 205.665C137.1 204.438 136.195 204.51 133.851 205.892Z" fill="#9FA2A4"/>
</svg>
