<svg width="248" height="60" viewBox="0 0 248 60" fill="none" xmlns="http://www.w3.org/2000/svg">
<path fill-rule="evenodd" clip-rule="evenodd" d="M25.7092 0.360173C18.1099 1.57799 12.3264 4.58354 7.13542 10.0116C5.63265 11.5829 3.40918 14.6261 3.40918 15.1113C3.40918 15.392 56.3384 15.4573 56.6174 15.1769C56.9347 14.858 54.476 11.6163 52.1128 9.23807C45.0992 2.17961 35.1755 -1.15717 25.7092 0.360173ZM103.12 7.93431V11.3607H106.387H109.654V7.93431V4.50787H106.387H103.12V7.93431ZM160.604 14.3332C156.819 15.0596 153.957 17.1237 152.544 20.1461C150.712 24.0628 151.613 29.0466 154.662 31.8723C156.454 33.5318 158.8 34.6214 163.416 35.9363C168.946 37.5119 169.762 37.8494 170.737 38.9664C171.409 39.7354 171.583 40.1999 171.583 41.2281C171.583 44.3468 168.87 46.4817 164.907 46.4817C160.974 46.4817 158.448 44.4793 157.389 40.5229L157.055 39.2751L155.725 39.4478C154.994 39.5429 153.469 39.7051 152.337 39.8084C149.995 40.022 150.052 39.9201 150.705 42.7012C151.63 46.6462 154.081 49.9758 157.101 51.3909C159.488 52.5091 161.492 52.8903 164.907 52.876C171.413 52.8486 175.39 50.7899 177.581 46.3158C178.734 43.9624 179.023 40.3924 178.276 37.7572C176.894 32.8888 174.265 31.0925 164.547 28.3764C161.088 27.4099 159.218 26.4408 158.639 25.3158C157.587 23.271 159.141 21.1084 162.108 20.4893C166.3 19.6145 169.833 21.3765 170.354 24.6022L170.521 25.6376H173.147C174.591 25.6376 176.188 25.5542 176.696 25.452L177.619 25.2664L177.462 23.7379C177.037 19.5996 174.063 16.063 169.928 14.7795C167.531 14.0351 163.23 13.8292 160.604 14.3332ZM70.7355 17.9281V21.069H75.8489H80.9623V36.6307V52.1924H84.5132H88.0642V36.6307V21.069H93.3196H98.5751V17.9281V14.7872H84.6553H70.7355V17.9281ZM102.836 33.4898V52.1924H106.387H109.938V33.4898V14.7872H106.387H102.836V33.4898ZM116.756 33.4898V52.1924H120.307H123.858V44.2991V36.4057L126.163 36.599C127.43 36.7052 128.822 36.9765 129.255 37.2015C130.613 37.9073 132.285 40.1154 136.107 46.2507L139.809 52.1924H143.907C146.161 52.1924 148.004 52.1399 148.004 52.0759C148.004 51.7504 141.551 40.9891 140.57 39.6794C139.945 38.8436 138.746 37.6255 137.907 36.9731L136.381 35.7867L138.223 35.1868C141.599 34.0874 143.898 31.8651 144.767 28.8633C145.486 26.3768 145.219 22.2354 144.213 20.2735C142.584 17.0966 140.606 15.6929 136.907 15.0896C135.901 14.9257 130.956 14.7906 125.917 14.7895L116.756 14.7872V33.4898ZM193.829 17.2873C191.308 24.2324 182.243 49.3893 181.791 50.6934L181.272 52.1924H185.068H188.864L190.261 47.9808L191.658 43.7691H198.718H205.778L207.254 47.9094L208.729 52.0497L212.572 52.1291L216.414 52.2081L211.45 38.9944C208.72 31.7266 205.568 23.3084 204.446 20.2875L202.405 14.7943L198.57 14.7923L194.735 14.7906L193.829 17.2873ZM220.16 33.4898V52.1924H223.427H226.694L226.703 39.9858C226.711 29.6302 226.771 27.8568 227.098 28.2913C227.311 28.5729 230.524 34.066 234.24 40.498L240.994 52.1924H244.497H248V33.4898V14.7872H244.736H241.472L241.398 27.2114L241.324 39.6357L234.222 27.2217L227.12 14.8075L223.64 14.7975L220.16 14.7872V33.4898ZM134.966 21.3934C138.828 22.6908 139.061 28.5286 135.314 30.1022C134.644 30.3838 132.926 30.4917 129.122 30.4917H123.858V25.7803V21.069H128.929C131.958 21.069 134.389 21.1995 134.966 21.3934ZM200.962 30.2775C202.197 33.7719 203.265 36.7915 203.334 36.9876C203.432 37.264 202.395 37.3446 198.743 37.3446C196.148 37.3446 194.025 37.2483 194.025 37.1304C194.025 36.6239 198.352 23.9243 198.524 23.9243C198.629 23.9243 199.726 26.7831 200.962 30.2775Z" fill="white"/>
<path d="M36.0791 25.988H60.5097C61.646 42.8906 50.8511 57.0945 36.0791 59.3671V25.988Z" fill="#60B9A7"/>
<path d="M24.5127 25.988H0.082058C-1.05425 42.8906 9.74068 57.0945 24.5127 59.3671V25.988Z" fill="#60B9A7"/>
</svg>
