<svg width="65" height="50" viewBox="0 0 65 50" fill="none" xmlns="http://www.w3.org/2000/svg">
<path d="M46.7386 5.67798H32.0107V35.9583L64.9946 32.1733V18.9245L57.4627 16.4572L46.7386 5.67798Z" fill="#C92032"/>
<path d="M61.5736 32.1733C59.3456 29.8427 56.2178 28.3879 52.7557 28.3879C49.2938 28.3879 46.1658 29.8427 43.9377 32.1733L32.0107 32.1729L37.6596 40.6898L64.995 40.6902V32.1733H61.5736Z" fill="#5B5B5B"/>
<path d="M37.6576 0V28.3878L9.41309 32.1731L22.5941 0.000681094L37.6576 0Z" fill="#EDEDED"/>
<path d="M18.8289 3.78532V32.1731L0.000976562 28.3878V0H15.0631L18.8289 3.78532Z" fill="#EDEDED"/>
<path d="M22.5953 0.000976562H15.0635V14.1941H22.5953V0.000976562Z" fill="#C92032"/>
<path d="M37.6603 28.3877H0.000976562V32.1729L19.7722 36.9043L37.6603 32.1727V28.3877Z" fill="#CCCCCC"/>
<path d="M37.6593 32.1721H0V40.6892H37.6593V32.1721Z" fill="#B2B2B2"/>
<path d="M12.2402 49.207L7.15625 40.6902L12.2402 32.1733C16.9125 32.1733 20.7136 35.994 20.7136 40.6902C20.7136 45.3864 16.9126 49.207 12.2402 49.207Z" fill="#383838"/>
<path d="M3.76758 40.6901C3.76758 45.3864 7.56874 49.207 12.241 49.207V32.1731C7.56874 32.1733 3.76758 35.9939 3.76758 40.6901Z" fill="#4C4C4C"/>
<path d="M12.2415 45.4216L9.41699 40.6899L12.2415 35.9583C14.8371 35.9583 16.9489 38.0809 16.9489 40.6899C16.9489 43.2991 14.8371 45.4216 12.2415 45.4216Z" fill="#CCCCCC"/>
<path d="M7.5332 40.6901C7.5332 43.299 9.64498 45.4216 12.2406 45.4216V35.9585C9.64482 35.9585 7.5332 38.0811 7.5332 40.6901Z" fill="white"/>
<path d="M52.7558 49.2068L47.6719 40.6901L52.7558 32.1733C57.428 32.1733 61.2291 35.9939 61.2291 40.6901C61.2291 45.3862 57.428 49.2068 52.7558 49.2068Z" fill="#383838"/>
<path d="M44.2832 40.6901C44.2832 45.3864 48.0844 49.207 52.7566 49.207V32.1731C48.0844 32.1733 44.2832 35.9939 44.2832 40.6901Z" fill="#4C4C4C"/>
<path d="M52.7561 45.4214L49.9316 40.6898L52.7561 35.9583C55.3517 35.9583 57.4635 38.0809 57.4635 40.6898C57.4635 43.2988 55.3517 45.4214 52.7561 45.4214Z" fill="#CCCCCC"/>
<path d="M48.0488 40.6898C48.0488 43.2988 50.1606 45.4214 52.7562 45.4214V35.9583C50.1606 35.9583 48.0488 38.0809 48.0488 40.6898Z" fill="white"/>
</svg>
